<svg width="20" height="30" viewBox="0 0 20 30" fill="none" xmlns="http://www.w3.org/2000/svg">
<path d="M9.54545 0C4.28219 0 0 4.48611 0 10C0 11.6553 0.395036 13.2965 1.14601 14.7522L9.02346 29.6777C9.12833 29.8767 9.32817 30 9.54545 30C9.76274 30 9.96258 29.8767 10.0675 29.6777L17.9478 14.7473C18.6959 13.2965 19.0909 11.6552 19.0909 9.99996C19.0909 4.48611 14.8087 0 9.54545 0ZM9.54545 15C6.91382 15 4.77276 12.757 4.77276 10C4.77276 7.24307 6.91382 5.00004 9.54545 5.00004C12.1771 5.00004 14.3182 7.24307 14.3182 10C14.3182 12.757 12.1771 15 9.54545 15Z" fill="#6D64E2"/>
</svg>
