<svg width="210" height="210" viewBox="0 0 210 210" fill="none" xmlns="http://www.w3.org/2000/svg">
<g opacity="0.1">
<path d="M7.5402 15.0803C11.7045 15.0803 15.0804 11.7045 15.0804 7.54017C15.0804 3.37586 11.7045 0 7.5402 0C3.37586 0 0 3.37586 0 7.54017C0 11.7045 3.37586 15.0803 7.5402 15.0803Z" fill="#070546"/>
<path d="M46.4791 15.0809C50.6434 15.0809 54.0193 11.7052 54.0193 7.54083C54.0193 3.37652 50.6434 0.000658039 46.4791 0.000658039C42.3148 0.000658039 38.9389 3.37652 38.9389 7.54083C38.9389 11.7052 42.3148 15.0809 46.4791 15.0809Z" fill="#070546"/>
<path d="M85.5305 15.0809C89.6949 15.0809 93.0708 11.7052 93.0708 7.54083C93.0708 3.37652 89.6949 0.000658039 85.5305 0.000658039C81.3662 0.000658039 77.9904 3.37652 77.9904 7.54083C77.9904 11.7052 81.3662 15.0809 85.5305 15.0809Z" fill="#070546"/>
<path d="M124.47 15.0809C128.634 15.0809 132.01 11.7052 132.01 7.54083C132.01 3.37652 128.634 0.000658039 124.47 0.000658039C120.305 0.000658039 116.929 3.37652 116.929 7.54083C116.929 11.7052 120.305 15.0809 124.47 15.0809Z" fill="#070546"/>
<path d="M163.521 15.0809C167.685 15.0809 171.061 11.7052 171.061 7.54083C171.061 3.37652 167.685 0.000658039 163.521 0.000658039C159.357 0.000658039 155.98 3.37652 155.98 7.54083C155.98 11.7052 159.357 15.0809 163.521 15.0809Z" fill="#070546"/>
<path d="M202.46 15.0809C206.624 15.0809 210 11.7052 210 7.54083C210 3.37652 206.624 0.000658039 202.46 0.000658039C198.295 0.000658039 194.92 3.37652 194.92 7.54083C194.92 11.7052 198.295 15.0809 202.46 15.0809Z" fill="#070546"/>
<path d="M7.5402 54.02C11.7045 54.02 15.0804 50.6441 15.0804 46.4798C15.0804 42.3155 11.7045 38.9396 7.5402 38.9396C3.37586 38.9396 0 42.3155 0 46.4798C0 50.6441 3.37586 54.02 7.5402 54.02Z" fill="#070546"/>
<path d="M46.4791 54.0199C50.6434 54.0199 54.0193 50.6439 54.0193 46.4797C54.0193 42.3154 50.6434 38.9395 46.4791 38.9395C42.3148 38.9395 38.9389 42.3154 38.9389 46.4797C38.9389 50.6439 42.3148 54.0199 46.4791 54.0199Z" fill="#070546"/>
<path d="M85.5305 54.0199C89.6949 54.0199 93.0708 50.6439 93.0708 46.4797C93.0708 42.3154 89.6949 38.9395 85.5305 38.9395C81.3662 38.9395 77.9904 42.3154 77.9904 46.4797C77.9904 50.6439 81.3662 54.0199 85.5305 54.0199Z" fill="#070546"/>
<path d="M124.47 54.0199C128.634 54.0199 132.01 50.6439 132.01 46.4797C132.01 42.3154 128.634 38.9395 124.47 38.9395C120.305 38.9395 116.929 42.3154 116.929 46.4797C116.929 50.6439 120.305 54.0199 124.47 54.0199Z" fill="#070546"/>
<path d="M163.521 54.0199C167.685 54.0199 171.061 50.6439 171.061 46.4797C171.061 42.3154 167.685 38.9395 163.521 38.9395C159.357 38.9395 155.98 42.3154 155.98 46.4797C155.98 50.6439 159.357 54.0199 163.521 54.0199Z" fill="#070546"/>
<path d="M202.46 54.0199C206.624 54.0199 210 50.6439 210 46.4797C210 42.3154 206.624 38.9395 202.46 38.9395C198.295 38.9395 194.92 42.3154 194.92 46.4797C194.92 50.6439 198.295 54.0199 202.46 54.0199Z" fill="#070546"/>
<path d="M7.5402 93.0708C11.7045 93.0708 15.0804 89.6949 15.0804 85.5306C15.0804 81.3663 11.7045 77.9904 7.5402 77.9904C3.37586 77.9904 0 81.3663 0 85.5306C0 89.6949 3.37586 93.0708 7.5402 93.0708Z" fill="#070546"/>
<path d="M46.4791 93.0708C50.6434 93.0708 54.0193 89.695 54.0193 85.5306C54.0193 81.3663 50.6434 77.9905 46.4791 77.9905C42.3148 77.9905 38.9389 81.3663 38.9389 85.5306C38.9389 89.695 42.3148 93.0708 46.4791 93.0708Z" fill="#070546"/>
<path d="M85.5305 93.0708C89.6949 93.0708 93.0708 89.695 93.0708 85.5306C93.0708 81.3663 89.6949 77.9905 85.5305 77.9905C81.3662 77.9905 77.9904 81.3663 77.9904 85.5306C77.9904 89.695 81.3662 93.0708 85.5305 93.0708Z" fill="#070546"/>
<path d="M124.47 93.0708C128.634 93.0708 132.01 89.695 132.01 85.5306C132.01 81.3663 128.634 77.9905 124.47 77.9905C120.305 77.9905 116.929 81.3663 116.929 85.5306C116.929 89.695 120.305 93.0708 124.47 93.0708Z" fill="#070546"/>
<path d="M163.521 93.0708C167.685 93.0708 171.061 89.695 171.061 85.5306C171.061 81.3663 167.685 77.9905 163.521 77.9905C159.357 77.9905 155.98 81.3663 155.98 85.5306C155.98 89.695 159.357 93.0708 163.521 93.0708Z" fill="#070546"/>
<path d="M202.46 93.0708C206.624 93.0708 210 89.695 210 85.5306C210 81.3663 206.624 77.9905 202.46 77.9905C198.295 77.9905 194.92 81.3663 194.92 85.5306C194.92 89.695 198.295 93.0708 202.46 93.0708Z" fill="#070546"/>
<path d="M7.5402 132.01C11.7045 132.01 15.0804 128.634 15.0804 124.47C15.0804 120.306 11.7045 116.929 7.5402 116.929C3.37586 116.929 0 120.306 0 124.47C0 128.634 3.37586 132.01 7.5402 132.01Z" fill="#070546"/>
<path d="M46.4791 132.009C50.6434 132.009 54.0193 128.634 54.0193 124.469C54.0193 120.305 50.6434 116.929 46.4791 116.929C42.3148 116.929 38.9389 120.305 38.9389 124.469C38.9389 128.634 42.3148 132.009 46.4791 132.009Z" fill="#070546"/>
<path d="M85.5305 132.009C89.6949 132.009 93.0708 128.634 93.0708 124.469C93.0708 120.305 89.6949 116.929 85.5305 116.929C81.3662 116.929 77.9904 120.305 77.9904 124.469C77.9904 128.634 81.3662 132.009 85.5305 132.009Z" fill="#070546"/>
<path d="M124.47 132.009C128.634 132.009 132.01 128.634 132.01 124.469C132.01 120.305 128.634 116.929 124.47 116.929C120.305 116.929 116.929 120.305 116.929 124.469C116.929 128.634 120.305 132.009 124.47 132.009Z" fill="#070546"/>
<path d="M163.521 132.009C167.685 132.009 171.061 128.634 171.061 124.469C171.061 120.305 167.685 116.929 163.521 116.929C159.357 116.929 155.98 120.305 155.98 124.469C155.98 128.634 159.357 132.009 163.521 132.009Z" fill="#070546"/>
<path d="M202.46 132.009C206.624 132.009 210 128.634 210 124.469C210 120.305 206.624 116.929 202.46 116.929C198.295 116.929 194.92 120.305 194.92 124.469C194.92 128.634 198.295 132.009 202.46 132.009Z" fill="#070546"/>
<path d="M7.5402 171.061C11.7045 171.061 15.0804 167.685 15.0804 163.521C15.0804 159.357 11.7045 155.981 7.5402 155.981C3.37586 155.981 0 159.357 0 163.521C0 167.685 3.37586 171.061 7.5402 171.061Z" fill="#070546"/>
<path d="M46.4791 171.061C50.6434 171.061 54.0193 167.685 54.0193 163.521C54.0193 159.357 50.6434 155.981 46.4791 155.981C42.3148 155.981 38.9389 159.357 38.9389 163.521C38.9389 167.685 42.3148 171.061 46.4791 171.061Z" fill="#070546"/>
<path d="M85.5305 171.061C89.6949 171.061 93.0708 167.685 93.0708 163.521C93.0708 159.357 89.6949 155.981 85.5305 155.981C81.3662 155.981 77.9904 159.357 77.9904 163.521C77.9904 167.685 81.3662 171.061 85.5305 171.061Z" fill="#070546"/>
<path d="M124.47 171.061C128.634 171.061 132.01 167.685 132.01 163.521C132.01 159.357 128.634 155.981 124.47 155.981C120.305 155.981 116.929 159.357 116.929 163.521C116.929 167.685 120.305 171.061 124.47 171.061Z" fill="#070546"/>
<path d="M163.521 171.061C167.685 171.061 171.061 167.685 171.061 163.521C171.061 159.357 167.685 155.981 163.521 155.981C159.357 155.981 155.98 159.357 155.98 163.521C155.98 167.685 159.357 171.061 163.521 171.061Z" fill="#070546"/>
<path d="M202.46 171.061C206.624 171.061 210 167.685 210 163.521C210 159.357 206.624 155.981 202.46 155.981C198.295 155.981 194.92 159.357 194.92 163.521C194.92 167.685 198.295 171.061 202.46 171.061Z" fill="#070546"/>
<path d="M7.5402 210C11.7045 210 15.0804 206.624 15.0804 202.46C15.0804 198.295 11.7045 194.92 7.5402 194.92C3.37586 194.92 0 198.295 0 202.46C0 206.624 3.37586 210 7.5402 210Z" fill="#070546"/>
<path d="M46.4791 210C50.6434 210 54.0193 206.624 54.0193 202.459C54.0193 198.295 50.6434 194.919 46.4791 194.919C42.3148 194.919 38.9389 198.295 38.9389 202.459C38.9389 206.624 42.3148 210 46.4791 210Z" fill="#070546"/>
<path d="M85.5305 210C89.6949 210 93.0708 206.624 93.0708 202.459C93.0708 198.295 89.6949 194.919 85.5305 194.919C81.3662 194.919 77.9904 198.295 77.9904 202.459C77.9904 206.624 81.3662 210 85.5305 210Z" fill="#070546"/>
<path d="M124.47 210C128.634 210 132.01 206.624 132.01 202.459C132.01 198.295 128.634 194.919 124.47 194.919C120.305 194.919 116.929 198.295 116.929 202.459C116.929 206.624 120.305 210 124.47 210Z" fill="#070546"/>
<path d="M163.521 210C167.685 210 171.061 206.624 171.061 202.459C171.061 198.295 167.685 194.919 163.521 194.919C159.357 194.919 155.98 198.295 155.98 202.459C155.98 206.624 159.357 210 163.521 210Z" fill="#070546"/>
<path d="M202.46 210C206.624 210 210 206.624 210 202.459C210 198.295 206.624 194.919 202.46 194.919C198.295 194.919 194.92 198.295 194.92 202.459C194.92 206.624 198.295 210 202.46 210Z" fill="#070546"/>
</g>
</svg>
