<svg width="114" height="298" viewBox="0 0 114 298" fill="none" xmlns="http://www.w3.org/2000/svg">
<g opacity="0.12">
<path d="M114 47.9078H-15V58.4591H114V47.9078Z" fill="#070546"/>
<path d="M114 0H-15V10.5513H114V0Z" fill="#070546"/>
<path d="M114 23.955H-15V34.5062H114V23.955Z" fill="#070546"/>
<path d="M114 71.8634H-15V82.4145H114V71.8634Z" fill="#070546"/>
<path d="M114 95.8176H-15V106.369H114V95.8176Z" fill="#070546"/>
<path d="M114 119.77H-15V130.321H114V119.77Z" fill="#070546"/>
<path d="M114 143.724H-15V154.275H114V143.724Z" fill="#070546"/>
<path d="M114 167.679H-15V178.23H114V167.679Z" fill="#070546"/>
<path d="M114 191.632H-15V202.184H114V191.632Z" fill="#070546"/>
<path d="M114 215.588H-15V226.138H114V215.588Z" fill="#070546"/>
<path d="M114 239.542H-15V250.094H114V239.542Z" fill="#070546"/>
<path d="M114 263.495H-15V274.046H114V263.495Z" fill="#070546"/>
<path d="M114 287.449H-15V298H114V287.449Z" fill="#070546"/>
</g>
</svg>
