<svg width="26" height="26" viewBox="0 0 26 26" fill="none" xmlns="http://www.w3.org/2000/svg">
<path d="M0 13C0 20.1682 5.83177 26 13 26C20.1682 26 26 20.1682 26 13C26 5.83177 20.1682 0 13 0C5.83177 0 0 5.83177 0 13ZM13 2.1366C18.9901 2.1366 23.8633 7.00988 23.8633 12.9999C23.8633 18.99 18.9901 23.8633 13 23.8633C7.00993 23.8633 2.13666 18.99 2.13666 13C2.13666 7.00988 7.00993 2.1366 13 2.1366Z" fill="#8382A2"/>
<path d="M13 22.1377C18.0385 22.1377 22.1377 18.0385 22.1377 13C22.1377 7.96147 18.0385 3.86232 13 3.86232C7.96147 3.86232 3.86232 7.96141 3.86232 13C3.86232 18.0385 7.96147 22.1377 13 22.1377ZM10.2677 13C10.2677 11.7949 11.0522 10.7703 12.1372 10.4081V6.52876H13.8628V10.4081C14.9478 10.7703 15.7323 11.7949 15.7323 13C15.7323 14.5066 14.5066 15.7323 13 15.7323C12.5608 15.7323 12.1457 15.6275 11.7777 15.4426L9.03425 18.186L7.81403 16.9657L10.5574 14.2223C10.3725 13.8543 10.2677 13.4392 10.2677 13Z" fill="#8382A2"/>
<path d="M13 14.0066C13.556 14.0066 14.0066 13.556 14.0066 13C14.0066 12.4441 13.556 11.9934 13 11.9934C12.444 11.9934 11.9934 12.4441 11.9934 13C11.9934 13.556 12.444 14.0066 13 14.0066Z" fill="#8382A2"/>
</svg>
