<svg width="190" height="244" viewBox="0 0 190 244" fill="none" xmlns="http://www.w3.org/2000/svg">
<g opacity="0.12">
<path d="M0 196.003L1.4142 197.417L151.003 47.8284V45L0 196.003Z" fill="#070546"/>
<path d="M0 151.003L1.4142 152.417L151.003 2.8284V0L0 151.003Z" fill="#070546"/>
</g>
<g opacity="0.1">
<path d="M68.5241 127.048C71.0227 127.048 73.0482 125.023 73.0482 122.524C73.0482 120.026 71.0227 118 68.5241 118C66.0255 118 64 120.026 64 122.524C64 125.023 66.0255 127.048 68.5241 127.048Z" fill="#070546"/>
<path d="M91.8875 127.049C94.386 127.049 96.4116 125.023 96.4116 122.524C96.4116 120.026 94.386 118 91.8875 118C89.3889 118 87.3633 120.026 87.3633 122.524C87.3633 125.023 89.3889 127.049 91.8875 127.049Z" fill="#070546"/>
<path d="M115.318 127.049C117.817 127.049 119.842 125.023 119.842 122.524C119.842 120.026 117.817 118 115.318 118C112.82 118 110.794 120.026 110.794 122.524C110.794 125.023 112.82 127.049 115.318 127.049Z" fill="#070546"/>
<path d="M138.682 127.049C141.18 127.049 143.206 125.023 143.206 122.524C143.206 120.026 141.18 118 138.682 118C136.183 118 134.157 120.026 134.157 122.524C134.157 125.023 136.183 127.049 138.682 127.049Z" fill="#070546"/>
<path d="M162.113 127.049C164.611 127.049 166.637 125.023 166.637 122.524C166.637 120.026 164.611 118 162.113 118C159.614 118 157.588 120.026 157.588 122.524C157.588 125.023 159.614 127.049 162.113 127.049Z" fill="#070546"/>
<path d="M185.476 127.049C187.974 127.049 190 125.023 190 122.524C190 120.026 187.974 118 185.476 118C182.977 118 180.952 120.026 180.952 122.524C180.952 125.023 182.977 127.049 185.476 127.049Z" fill="#070546"/>
<path d="M68.5241 150.412C71.0227 150.412 73.0482 148.386 73.0482 145.888C73.0482 143.389 71.0227 141.364 68.5241 141.364C66.0255 141.364 64 143.389 64 145.888C64 148.386 66.0255 150.412 68.5241 150.412Z" fill="#070546"/>
<path d="M91.8875 150.412C94.386 150.412 96.4116 148.386 96.4116 145.888C96.4116 143.389 94.386 141.364 91.8875 141.364C89.3889 141.364 87.3633 143.389 87.3633 145.888C87.3633 148.386 89.3889 150.412 91.8875 150.412Z" fill="#070546"/>
<path d="M115.318 150.412C117.817 150.412 119.842 148.386 119.842 145.888C119.842 143.389 117.817 141.364 115.318 141.364C112.82 141.364 110.794 143.389 110.794 145.888C110.794 148.386 112.82 150.412 115.318 150.412Z" fill="#070546"/>
<path d="M138.682 150.412C141.18 150.412 143.206 148.386 143.206 145.888C143.206 143.389 141.18 141.364 138.682 141.364C136.183 141.364 134.157 143.389 134.157 145.888C134.157 148.386 136.183 150.412 138.682 150.412Z" fill="#070546"/>
<path d="M162.113 150.412C164.611 150.412 166.637 148.386 166.637 145.888C166.637 143.389 164.611 141.364 162.113 141.364C159.614 141.364 157.588 143.389 157.588 145.888C157.588 148.386 159.614 150.412 162.113 150.412Z" fill="#070546"/>
<path d="M185.476 150.412C187.974 150.412 190 148.386 190 145.888C190 143.389 187.974 141.364 185.476 141.364C182.977 141.364 180.952 143.389 180.952 145.888C180.952 148.386 182.977 150.412 185.476 150.412Z" fill="#070546"/>
<path d="M68.5241 173.842C71.0227 173.842 73.0482 171.817 73.0482 169.318C73.0482 166.82 71.0227 164.794 68.5241 164.794C66.0255 164.794 64 166.82 64 169.318C64 171.817 66.0255 173.842 68.5241 173.842Z" fill="#070546"/>
<path d="M91.8875 173.842C94.386 173.842 96.4116 171.817 96.4116 169.318C96.4116 166.82 94.386 164.794 91.8875 164.794C89.3889 164.794 87.3633 166.82 87.3633 169.318C87.3633 171.817 89.3889 173.842 91.8875 173.842Z" fill="#070546"/>
<path d="M115.318 173.842C117.817 173.842 119.842 171.817 119.842 169.318C119.842 166.82 117.817 164.794 115.318 164.794C112.82 164.794 110.794 166.82 110.794 169.318C110.794 171.817 112.82 173.842 115.318 173.842Z" fill="#070546"/>
<path d="M138.682 173.842C141.18 173.842 143.206 171.817 143.206 169.318C143.206 166.82 141.18 164.794 138.682 164.794C136.183 164.794 134.157 166.82 134.157 169.318C134.157 171.817 136.183 173.842 138.682 173.842Z" fill="#070546"/>
<path d="M162.113 173.842C164.611 173.842 166.637 171.817 166.637 169.318C166.637 166.82 164.611 164.794 162.113 164.794C159.614 164.794 157.588 166.82 157.588 169.318C157.588 171.817 159.614 173.842 162.113 173.842Z" fill="#070546"/>
<path d="M185.476 173.842C187.974 173.842 190 171.817 190 169.318C190 166.82 187.974 164.794 185.476 164.794C182.977 164.794 180.952 166.82 180.952 169.318C180.952 171.817 182.977 173.842 185.476 173.842Z" fill="#070546"/>
<path d="M68.5241 197.206C71.0227 197.206 73.0482 195.18 73.0482 192.682C73.0482 190.183 71.0227 188.158 68.5241 188.158C66.0255 188.158 64 190.183 64 192.682C64 195.18 66.0255 197.206 68.5241 197.206Z" fill="#070546"/>
<path d="M91.8875 197.206C94.386 197.206 96.4116 195.18 96.4116 192.682C96.4116 190.183 94.386 188.158 91.8875 188.158C89.3889 188.158 87.3633 190.183 87.3633 192.682C87.3633 195.18 89.3889 197.206 91.8875 197.206Z" fill="#070546"/>
<path d="M115.318 197.206C117.817 197.206 119.842 195.18 119.842 192.682C119.842 190.183 117.817 188.158 115.318 188.158C112.82 188.158 110.794 190.183 110.794 192.682C110.794 195.18 112.82 197.206 115.318 197.206Z" fill="#070546"/>
<path d="M138.682 197.206C141.18 197.206 143.206 195.18 143.206 192.682C143.206 190.183 141.18 188.158 138.682 188.158C136.183 188.158 134.157 190.183 134.157 192.682C134.157 195.18 136.183 197.206 138.682 197.206Z" fill="#070546"/>
<path d="M162.113 197.206C164.611 197.206 166.637 195.18 166.637 192.682C166.637 190.183 164.611 188.158 162.113 188.158C159.614 188.158 157.588 190.183 157.588 192.682C157.588 195.18 159.614 197.206 162.113 197.206Z" fill="#070546"/>
<path d="M185.476 197.206C187.974 197.206 190 195.18 190 192.682C190 190.183 187.974 188.158 185.476 188.158C182.977 188.158 180.952 190.183 180.952 192.682C180.952 195.18 182.977 197.206 185.476 197.206Z" fill="#070546"/>
<path d="M68.5241 220.637C71.0227 220.637 73.0482 218.611 73.0482 216.112C73.0482 213.614 71.0227 211.588 68.5241 211.588C66.0255 211.588 64 213.614 64 216.112C64 218.611 66.0255 220.637 68.5241 220.637Z" fill="#070546"/>
<path d="M91.8875 220.637C94.386 220.637 96.4116 218.611 96.4116 216.112C96.4116 213.614 94.386 211.588 91.8875 211.588C89.3889 211.588 87.3633 213.614 87.3633 216.112C87.3633 218.611 89.3889 220.637 91.8875 220.637Z" fill="#070546"/>
<path d="M115.318 220.637C117.817 220.637 119.842 218.611 119.842 216.112C119.842 213.614 117.817 211.588 115.318 211.588C112.82 211.588 110.794 213.614 110.794 216.112C110.794 218.611 112.82 220.637 115.318 220.637Z" fill="#070546"/>
<path d="M138.682 220.637C141.18 220.637 143.206 218.611 143.206 216.112C143.206 213.614 141.18 211.588 138.682 211.588C136.183 211.588 134.157 213.614 134.157 216.112C134.157 218.611 136.183 220.637 138.682 220.637Z" fill="#070546"/>
<path d="M162.113 220.637C164.611 220.637 166.637 218.611 166.637 216.112C166.637 213.614 164.611 211.588 162.113 211.588C159.614 211.588 157.588 213.614 157.588 216.112C157.588 218.611 159.614 220.637 162.113 220.637Z" fill="#070546"/>
<path d="M185.476 220.637C187.974 220.637 190 218.611 190 216.112C190 213.614 187.974 211.588 185.476 211.588C182.977 211.588 180.952 213.614 180.952 216.112C180.952 218.611 182.977 220.637 185.476 220.637Z" fill="#070546"/>
<path d="M68.5241 244C71.0227 244 73.0482 241.974 73.0482 239.476C73.0482 236.977 71.0227 234.952 68.5241 234.952C66.0255 234.952 64 236.977 64 239.476C64 241.974 66.0255 244 68.5241 244Z" fill="#070546"/>
<path d="M91.8875 244C94.386 244 96.4116 241.974 96.4116 239.475C96.4116 236.977 94.386 234.952 91.8875 234.952C89.3889 234.952 87.3633 236.977 87.3633 239.475C87.3633 241.974 89.3889 244 91.8875 244Z" fill="#070546"/>
<path d="M115.318 244C117.817 244 119.842 241.974 119.842 239.475C119.842 236.977 117.817 234.952 115.318 234.952C112.82 234.952 110.794 236.977 110.794 239.475C110.794 241.974 112.82 244 115.318 244Z" fill="#070546"/>
<path d="M138.682 244C141.18 244 143.206 241.974 143.206 239.475C143.206 236.977 141.18 234.952 138.682 234.952C136.183 234.952 134.157 236.977 134.157 239.475C134.157 241.974 136.183 244 138.682 244Z" fill="#070546"/>
<path d="M162.113 244C164.611 244 166.637 241.974 166.637 239.475C166.637 236.977 164.611 234.952 162.113 234.952C159.614 234.952 157.588 236.977 157.588 239.475C157.588 241.974 159.614 244 162.113 244Z" fill="#070546"/>
<path d="M185.476 244C187.974 244 190 241.974 190 239.475C190 236.977 187.974 234.952 185.476 234.952C182.977 234.952 180.952 236.977 180.952 239.475C180.952 241.974 182.977 244 185.476 244Z" fill="#070546"/>
</g>
</svg>
