<svg width="16" height="18" viewBox="0 0 16 18" fill="none" xmlns="http://www.w3.org/2000/svg">
<path d="M15.3846 11.5714C15.0447 11.5714 14.7692 11.8592 14.7692 12.2143V16.0714C14.7692 16.4265 14.4937 16.7143 14.1538 16.7143H1.84619C1.50631 16.7143 1.23079 16.4265 1.23079 16.0714V12.2143C1.23079 11.8592 0.955275 11.5714 0.615396 11.5714C0.275516 11.5714 0 11.8592 0 12.2143V16.0714C0 17.1365 0.826549 18 1.84615 18H14.1538C15.1735 18 16 17.1365 16 16.0714V12.2143C16 11.8592 15.7245 11.5714 15.3846 11.5714Z" fill="white"/>
<path d="M11.4981 11.1169C11.2596 10.8763 10.8815 10.8763 10.6431 11.1169L8.6154 13.2338V0.642869C8.6154 0.287816 8.33988 0 8 0C7.66012 0 7.3846 0.287816 7.3846 0.642869V13.2339L5.35813 11.1169C5.11366 10.8703 4.72409 10.8774 4.48799 11.1327C4.25765 11.3818 4.25765 11.7768 4.48799 12.0259L7.56489 15.2402C7.80493 15.4915 8.19457 15.4921 8.43518 15.2414L8.4363 15.2402L11.5132 12.0259C11.7493 11.7705 11.7426 11.3636 11.4981 11.1169Z" fill="white"/>
</svg>
