<svg width="29" height="29" viewBox="0 0 29 29" fill="none" xmlns="http://www.w3.org/2000/svg">
<path d="M26.673 19.0352C24.8975 19.0352 23.1542 18.7575 21.5022 18.2115C20.6927 17.9354 19.6975 18.1887 19.2035 18.6962L15.9427 21.1577C12.1612 19.1391 9.83181 16.8105 7.84078 13.0573L10.2299 9.88152C10.8506 9.26165 11.0732 8.35615 10.8065 7.50654C10.2582 5.84584 9.97968 4.10335 9.97968 2.3271C9.97975 1.04392 8.93583 0 7.65273 0H2.32702C1.04392 0 0 1.04392 0 2.32702C0 17.0347 11.9653 29 26.673 29C27.9561 29 29 27.9561 29 26.673V21.3621C28.9999 20.0791 27.956 19.0352 26.673 19.0352Z" fill="#6D64E2"/>
</svg>
