<svg width="186" height="186" viewBox="0 0 186 186" fill="none" xmlns="http://www.w3.org/2000/svg">
<g opacity="0.1">
<path d="M6.67847 13.3569C10.3669 13.3569 13.3569 10.3669 13.3569 6.67847C13.3569 2.99006 10.3669 0 6.67847 0C2.99005 0 0 2.99006 0 6.67847C0 10.3669 2.99005 13.3569 6.67847 13.3569Z" fill="#070546"/>
<path d="M41.1672 13.3575C44.8556 13.3575 47.8456 10.3675 47.8456 6.67909C47.8456 2.99068 44.8556 0.000619262 41.1672 0.000619262C37.4788 0.000619262 34.4887 2.99068 34.4887 6.67909C34.4887 10.3675 37.4788 13.3575 41.1672 13.3575Z" fill="#070546"/>
<path d="M75.7556 13.3575C79.4441 13.3575 82.4341 10.3675 82.4341 6.67909C82.4341 2.99068 79.4441 0.000619262 75.7556 0.000619262C72.0672 0.000619262 69.0772 2.99068 69.0772 6.67909C69.0772 10.3675 72.0672 13.3575 75.7556 13.3575Z" fill="#070546"/>
<path d="M110.245 13.3575C113.933 13.3575 116.923 10.3675 116.923 6.67909C116.923 2.99068 113.933 0.000619262 110.245 0.000619262C106.556 0.000619262 103.566 2.99068 103.566 6.67909C103.566 10.3675 106.556 13.3575 110.245 13.3575Z" fill="#070546"/>
<path d="M144.833 13.3575C148.521 13.3575 151.511 10.3675 151.511 6.67909C151.511 2.99068 148.521 0.000619262 144.833 0.000619262C141.144 0.000619262 138.154 2.99068 138.154 6.67909C138.154 10.3675 141.144 13.3575 144.833 13.3575Z" fill="#070546"/>
<path d="M179.322 13.3575C183.01 13.3575 186 10.3675 186 6.67909C186 2.99068 183.01 0.000619262 179.322 0.000619262C175.633 0.000619262 172.643 2.99068 172.643 6.67909C172.643 10.3675 175.633 13.3575 179.322 13.3575Z" fill="#070546"/>
<path d="M6.67847 47.8465C10.3669 47.8465 13.3569 44.8565 13.3569 41.168C13.3569 37.4797 10.3669 34.4896 6.67847 34.4896C2.99005 34.4896 0 37.4797 0 41.168C0 44.8565 2.99005 47.8465 6.67847 47.8465Z" fill="#070546"/>
<path d="M41.1672 47.8463C44.8556 47.8463 47.8456 44.8562 47.8456 41.1678C47.8456 37.4794 44.8556 34.4893 41.1672 34.4893C37.4788 34.4893 34.4887 37.4794 34.4887 41.1678C34.4887 44.8562 37.4788 47.8463 41.1672 47.8463Z" fill="#070546"/>
<path d="M75.7556 47.8463C79.4441 47.8463 82.4341 44.8562 82.4341 41.1678C82.4341 37.4794 79.4441 34.4893 75.7556 34.4893C72.0672 34.4893 69.0772 37.4794 69.0772 41.1678C69.0772 44.8562 72.0672 47.8463 75.7556 47.8463Z" fill="#070546"/>
<path d="M110.245 47.8463C113.933 47.8463 116.923 44.8562 116.923 41.1678C116.923 37.4794 113.933 34.4893 110.245 34.4893C106.556 34.4893 103.566 37.4794 103.566 41.1678C103.566 44.8562 106.556 47.8463 110.245 47.8463Z" fill="#070546"/>
<path d="M144.833 47.8463C148.521 47.8463 151.511 44.8562 151.511 41.1678C151.511 37.4794 148.521 34.4893 144.833 34.4893C141.144 34.4893 138.154 37.4794 138.154 41.1678C138.154 44.8562 141.144 47.8463 144.833 47.8463Z" fill="#070546"/>
<path d="M179.322 47.8463C183.01 47.8463 186 44.8562 186 41.1678C186 37.4794 183.01 34.4893 179.322 34.4893C175.633 34.4893 172.643 37.4794 172.643 41.1678C172.643 44.8562 175.633 47.8463 179.322 47.8463Z" fill="#070546"/>
<path d="M6.67847 82.4345C10.3669 82.4345 13.3569 79.4444 13.3569 75.756C13.3569 72.0676 10.3669 69.0775 6.67847 69.0775C2.99005 69.0775 0 72.0676 0 75.756C0 79.4444 2.99005 82.4345 6.67847 82.4345Z" fill="#070546"/>
<path d="M41.1672 82.4345C44.8556 82.4345 47.8456 79.4445 47.8456 75.756C47.8456 72.0677 44.8556 69.0776 41.1672 69.0776C37.4788 69.0776 34.4887 72.0677 34.4887 75.756C34.4887 79.4445 37.4788 82.4345 41.1672 82.4345Z" fill="#070546"/>
<path d="M75.7556 82.4345C79.4441 82.4345 82.4341 79.4445 82.4341 75.756C82.4341 72.0677 79.4441 69.0776 75.7556 69.0776C72.0672 69.0776 69.0772 72.0677 69.0772 75.756C69.0772 79.4445 72.0672 82.4345 75.7556 82.4345Z" fill="#070546"/>
<path d="M110.245 82.4345C113.933 82.4345 116.923 79.4445 116.923 75.756C116.923 72.0677 113.933 69.0776 110.245 69.0776C106.556 69.0776 103.566 72.0677 103.566 75.756C103.566 79.4445 106.556 82.4345 110.245 82.4345Z" fill="#070546"/>
<path d="M144.833 82.4345C148.521 82.4345 151.511 79.4445 151.511 75.756C151.511 72.0677 148.521 69.0776 144.833 69.0776C141.144 69.0776 138.154 72.0677 138.154 75.756C138.154 79.4445 141.144 82.4345 144.833 82.4345Z" fill="#070546"/>
<path d="M179.322 82.4345C183.01 82.4345 186 79.4445 186 75.756C186 72.0677 183.01 69.0776 179.322 69.0776C175.633 69.0776 172.643 72.0677 172.643 75.756C172.643 79.4445 175.633 82.4345 179.322 82.4345Z" fill="#070546"/>
<path d="M6.67847 116.924C10.3669 116.924 13.3569 113.933 13.3569 110.246C13.3569 106.557 10.3669 103.567 6.67847 103.567C2.99005 103.567 0 106.557 0 110.246C0 113.933 2.99005 116.924 6.67847 116.924Z" fill="#070546"/>
<path d="M41.1672 116.923C44.8556 116.923 47.8456 113.934 47.8456 110.245C47.8456 106.556 44.8556 103.567 41.1672 103.567C37.4788 103.567 34.4887 106.556 34.4887 110.245C34.4887 113.934 37.4788 116.923 41.1672 116.923Z" fill="#070546"/>
<path d="M75.7556 116.923C79.4441 116.923 82.4341 113.934 82.4341 110.245C82.4341 106.556 79.4441 103.567 75.7556 103.567C72.0672 103.567 69.0772 106.556 69.0772 110.245C69.0772 113.934 72.0672 116.923 75.7556 116.923Z" fill="#070546"/>
<path d="M110.245 116.923C113.933 116.923 116.923 113.934 116.923 110.245C116.923 106.556 113.933 103.567 110.245 103.567C106.556 103.567 103.566 106.556 103.566 110.245C103.566 113.934 106.556 116.923 110.245 116.923Z" fill="#070546"/>
<path d="M144.833 116.923C148.521 116.923 151.511 113.934 151.511 110.245C151.511 106.556 148.521 103.567 144.833 103.567C141.144 103.567 138.154 106.556 138.154 110.245C138.154 113.934 141.144 116.923 144.833 116.923Z" fill="#070546"/>
<path d="M179.322 116.923C183.01 116.923 186 113.934 186 110.245C186 106.556 183.01 103.567 179.322 103.567C175.633 103.567 172.643 106.556 172.643 110.245C172.643 113.934 175.633 116.923 179.322 116.923Z" fill="#070546"/>
<path d="M6.67847 151.512C10.3669 151.512 13.3569 148.522 13.3569 144.833C13.3569 141.145 10.3669 138.155 6.67847 138.155C2.99005 138.155 0 141.145 0 144.833C0 148.522 2.99005 151.512 6.67847 151.512Z" fill="#070546"/>
<path d="M41.1672 151.512C44.8556 151.512 47.8456 148.522 47.8456 144.833C47.8456 141.145 44.8556 138.155 41.1672 138.155C37.4788 138.155 34.4887 141.145 34.4887 144.833C34.4887 148.522 37.4788 151.512 41.1672 151.512Z" fill="#070546"/>
<path d="M75.7556 151.512C79.4441 151.512 82.4341 148.522 82.4341 144.833C82.4341 141.145 79.4441 138.155 75.7556 138.155C72.0672 138.155 69.0772 141.145 69.0772 144.833C69.0772 148.522 72.0672 151.512 75.7556 151.512Z" fill="#070546"/>
<path d="M110.245 151.512C113.933 151.512 116.923 148.522 116.923 144.833C116.923 141.145 113.933 138.155 110.245 138.155C106.556 138.155 103.566 141.145 103.566 144.833C103.566 148.522 106.556 151.512 110.245 151.512Z" fill="#070546"/>
<path d="M144.833 151.512C148.521 151.512 151.511 148.522 151.511 144.833C151.511 141.145 148.521 138.155 144.833 138.155C141.144 138.155 138.154 141.145 138.154 144.833C138.154 148.522 141.144 151.512 144.833 151.512Z" fill="#070546"/>
<path d="M179.322 151.512C183.01 151.512 186 148.522 186 144.833C186 141.145 183.01 138.155 179.322 138.155C175.633 138.155 172.643 141.145 172.643 144.833C172.643 148.522 175.633 151.512 179.322 151.512Z" fill="#070546"/>
<path d="M6.67847 186.001C10.3669 186.001 13.3569 183.01 13.3569 179.323C13.3569 175.634 10.3669 172.644 6.67847 172.644C2.99005 172.644 0 175.634 0 179.323C0 183.01 2.99005 186.001 6.67847 186.001Z" fill="#070546"/>
<path d="M41.1672 186.001C44.8556 186.001 47.8456 183.01 47.8456 179.322C47.8456 175.634 44.8556 172.643 41.1672 172.643C37.4788 172.643 34.4887 175.634 34.4887 179.322C34.4887 183.01 37.4788 186.001 41.1672 186.001Z" fill="#070546"/>
<path d="M75.7556 186.001C79.4441 186.001 82.4341 183.01 82.4341 179.322C82.4341 175.634 79.4441 172.643 75.7556 172.643C72.0672 172.643 69.0772 175.634 69.0772 179.322C69.0772 183.01 72.0672 186.001 75.7556 186.001Z" fill="#070546"/>
<path d="M110.245 186.001C113.933 186.001 116.923 183.01 116.923 179.322C116.923 175.634 113.933 172.643 110.245 172.643C106.556 172.643 103.566 175.634 103.566 179.322C103.566 183.01 106.556 186.001 110.245 186.001Z" fill="#070546"/>
<path d="M144.833 186.001C148.521 186.001 151.511 183.01 151.511 179.322C151.511 175.634 148.521 172.643 144.833 172.643C141.144 172.643 138.154 175.634 138.154 179.322C138.154 183.01 141.144 186.001 144.833 186.001Z" fill="#070546"/>
<path d="M179.322 186.001C183.01 186.001 186 183.01 186 179.322C186 175.634 183.01 172.643 179.322 172.643C175.633 172.643 172.643 175.634 172.643 179.322C172.643 183.01 175.633 186.001 179.322 186.001Z" fill="#070546"/>
</g>
</svg>
