<svg width="143" height="143" viewBox="0 0 143 143" fill="none" xmlns="http://www.w3.org/2000/svg">
<g opacity="0.1">
<path d="M5.13452 10.269C7.97023 10.269 10.269 7.9702 10.269 5.1345C10.269 2.2988 7.97023 0 5.13452 0C2.2988 0 0 2.2988 0 5.1345C0 7.9702 2.2988 10.269 5.13452 10.269Z" fill="#070546"/>
<path d="M31.6501 10.2694C34.4857 10.2694 36.7845 7.97065 36.7845 5.13494C36.7845 2.29925 34.4857 0.000448093 31.6501 0.000448093C28.8144 0.000448093 26.5155 2.29925 26.5155 5.13494C26.5155 7.97065 28.8144 10.2694 31.6501 10.2694Z" fill="#070546"/>
<path d="M58.2422 10.2694C61.078 10.2694 63.3768 7.97065 63.3768 5.13494C63.3768 2.29925 61.078 0.000448093 58.2422 0.000448093C55.4065 0.000448093 53.1077 2.29925 53.1077 5.13494C53.1077 7.97065 55.4065 10.2694 58.2422 10.2694Z" fill="#070546"/>
<path d="M84.758 10.2694C87.5933 10.2694 89.8924 7.97065 89.8924 5.13494C89.8924 2.29925 87.5933 0.000448093 84.758 0.000448093C81.9221 0.000448093 79.623 2.29925 79.623 5.13494C79.623 7.97065 81.9221 10.2694 84.758 10.2694Z" fill="#070546"/>
<path d="M111.35 10.2694C114.185 10.2694 116.485 7.97065 116.485 5.13494C116.485 2.29925 114.185 0.000448093 111.35 0.000448093C108.514 0.000448093 106.215 2.29925 106.215 5.13494C106.215 7.97065 108.514 10.2694 111.35 10.2694Z" fill="#070546"/>
<path d="M137.866 10.2694C140.701 10.2694 143 7.97065 143 5.13494C143 2.29925 140.701 0.000448093 137.866 0.000448093C135.03 0.000448093 132.731 2.29925 132.731 5.13494C132.731 7.97065 135.03 10.2694 137.866 10.2694Z" fill="#070546"/>
<path d="M5.13452 36.785C7.97023 36.785 10.269 34.4862 10.269 31.6505C10.269 28.8148 7.97023 26.516 5.13452 26.516C2.2988 26.516 0 28.8148 0 31.6505C0 34.4862 2.2988 36.785 5.13452 36.785Z" fill="#070546"/>
<path d="M31.6501 36.785C34.4857 36.785 36.7845 34.4861 36.7845 31.6504C36.7845 28.8148 34.4857 26.5159 31.6501 26.5159C28.8144 26.5159 26.5155 28.8148 26.5155 31.6504C26.5155 34.4861 28.8144 36.785 31.6501 36.785Z" fill="#070546"/>
<path d="M58.2422 36.785C61.078 36.785 63.3768 34.4861 63.3768 31.6504C63.3768 28.8148 61.078 26.5159 58.2422 26.5159C55.4065 26.5159 53.1077 28.8148 53.1077 31.6504C53.1077 34.4861 55.4065 36.785 58.2422 36.785Z" fill="#070546"/>
<path d="M84.758 36.785C87.5933 36.785 89.8924 34.4861 89.8924 31.6504C89.8924 28.8148 87.5933 26.5159 84.758 26.5159C81.9221 26.5159 79.623 28.8148 79.623 31.6504C79.623 34.4861 81.9221 36.785 84.758 36.785Z" fill="#070546"/>
<path d="M111.35 36.785C114.185 36.785 116.485 34.4861 116.485 31.6504C116.485 28.8148 114.185 26.5159 111.35 26.5159C108.514 26.5159 106.215 28.8148 106.215 31.6504C106.215 34.4861 108.514 36.785 111.35 36.785Z" fill="#070546"/>
<path d="M137.866 36.785C140.701 36.785 143 34.4861 143 31.6504C143 28.8148 140.701 26.5159 137.866 26.5159C135.03 26.5159 132.731 28.8148 132.731 31.6504C132.731 34.4861 135.03 36.785 137.866 36.785Z" fill="#070546"/>
<path d="M5.13452 63.3768C7.97023 63.3768 10.269 61.0779 10.269 58.2423C10.269 55.4066 7.97023 53.1077 5.13452 53.1077C2.2988 53.1077 0 55.4066 0 58.2423C0 61.0779 2.2988 63.3768 5.13452 63.3768Z" fill="#070546"/>
<path d="M31.6501 63.3768C34.4857 63.3768 36.7845 61.078 36.7845 58.2423C36.7845 55.4066 34.4857 53.1078 31.6501 53.1078C28.8144 53.1078 26.5155 55.4066 26.5155 58.2423C26.5155 61.078 28.8144 63.3768 31.6501 63.3768Z" fill="#070546"/>
<path d="M58.2422 63.3768C61.078 63.3768 63.3768 61.078 63.3768 58.2423C63.3768 55.4066 61.078 53.1078 58.2422 53.1078C55.4065 53.1078 53.1077 55.4066 53.1077 58.2423C53.1077 61.078 55.4065 63.3768 58.2422 63.3768Z" fill="#070546"/>
<path d="M84.758 63.3768C87.5933 63.3768 89.8924 61.078 89.8924 58.2423C89.8924 55.4066 87.5933 53.1078 84.758 53.1078C81.9221 53.1078 79.623 55.4066 79.623 58.2423C79.623 61.078 81.9221 63.3768 84.758 63.3768Z" fill="#070546"/>
<path d="M111.35 63.3768C114.185 63.3768 116.485 61.078 116.485 58.2423C116.485 55.4066 114.185 53.1078 111.35 53.1078C108.514 53.1078 106.215 55.4066 106.215 58.2423C106.215 61.078 108.514 63.3768 111.35 63.3768Z" fill="#070546"/>
<path d="M137.866 63.3768C140.701 63.3768 143 61.078 143 58.2423C143 55.4066 140.701 53.1078 137.866 53.1078C135.03 53.1078 132.731 55.4066 132.731 58.2423C132.731 61.078 135.03 63.3768 137.866 63.3768Z" fill="#070546"/>
<path d="M5.13452 89.8926C7.97023 89.8926 10.269 87.5936 10.269 84.7583C10.269 81.9224 7.97023 79.6233 5.13452 79.6233C2.2988 79.6233 0 81.9224 0 84.7583C0 87.5936 2.2988 89.8926 5.13452 89.8926Z" fill="#070546"/>
<path d="M31.6501 89.892C34.4857 89.892 36.7845 87.5936 36.7845 84.7577C36.7845 81.9217 34.4857 79.6233 31.6501 79.6233C28.8144 79.6233 26.5155 81.9217 26.5155 84.7577C26.5155 87.5936 28.8144 89.892 31.6501 89.892Z" fill="#070546"/>
<path d="M58.2422 89.892C61.078 89.892 63.3768 87.5936 63.3768 84.7577C63.3768 81.9217 61.078 79.6233 58.2422 79.6233C55.4065 79.6233 53.1077 81.9217 53.1077 84.7577C53.1077 87.5936 55.4065 89.892 58.2422 89.892Z" fill="#070546"/>
<path d="M84.758 89.892C87.5933 89.892 89.8924 87.5936 89.8924 84.7577C89.8924 81.9217 87.5933 79.6233 84.758 79.6233C81.9221 79.6233 79.623 81.9217 79.623 84.7577C79.623 87.5936 81.9221 89.892 84.758 89.892Z" fill="#070546"/>
<path d="M111.35 89.892C114.185 89.892 116.485 87.5936 116.485 84.7577C116.485 81.9217 114.185 79.6233 111.35 79.6233C108.514 79.6233 106.215 81.9217 106.215 84.7577C106.215 87.5936 108.514 89.892 111.35 89.892Z" fill="#070546"/>
<path d="M137.866 89.892C140.701 89.892 143 87.5936 143 84.7577C143 81.9217 140.701 79.6233 137.866 79.6233C135.03 79.6233 132.731 81.9217 132.731 84.7577C132.731 87.5936 135.03 89.892 137.866 89.892Z" fill="#070546"/>
<path d="M5.13452 116.485C7.97023 116.485 10.269 114.186 10.269 111.35C10.269 108.514 7.97023 106.215 5.13452 106.215C2.2988 106.215 0 108.514 0 111.35C0 114.186 2.2988 116.485 5.13452 116.485Z" fill="#070546"/>
<path d="M31.6501 116.485C34.4857 116.485 36.7845 114.186 36.7845 111.35C36.7845 108.514 34.4857 106.215 31.6501 106.215C28.8144 106.215 26.5155 108.514 26.5155 111.35C26.5155 114.186 28.8144 116.485 31.6501 116.485Z" fill="#070546"/>
<path d="M58.2422 116.485C61.078 116.485 63.3768 114.186 63.3768 111.35C63.3768 108.514 61.078 106.215 58.2422 106.215C55.4065 106.215 53.1077 108.514 53.1077 111.35C53.1077 114.186 55.4065 116.485 58.2422 116.485Z" fill="#070546"/>
<path d="M84.758 116.485C87.5933 116.485 89.8924 114.186 89.8924 111.35C89.8924 108.514 87.5933 106.215 84.758 106.215C81.9221 106.215 79.623 108.514 79.623 111.35C79.623 114.186 81.9221 116.485 84.758 116.485Z" fill="#070546"/>
<path d="M111.35 116.485C114.185 116.485 116.485 114.186 116.485 111.35C116.485 108.514 114.185 106.215 111.35 106.215C108.514 106.215 106.215 108.514 106.215 111.35C106.215 114.186 108.514 116.485 111.35 116.485Z" fill="#070546"/>
<path d="M137.866 116.485C140.701 116.485 143 114.186 143 111.35C143 108.514 140.701 106.215 137.866 106.215C135.03 106.215 132.731 108.514 132.731 111.35C132.731 114.186 135.03 116.485 137.866 116.485Z" fill="#070546"/>
<path d="M5.13452 143C7.97023 143 10.269 140.701 10.269 137.866C10.269 135.03 7.97023 132.731 5.13452 132.731C2.2988 132.731 0 135.03 0 137.866C0 140.701 2.2988 143 5.13452 143Z" fill="#070546"/>
<path d="M31.6501 143C34.4857 143 36.7845 140.701 36.7845 137.865C36.7845 135.03 34.4857 132.731 31.6501 132.731C28.8144 132.731 26.5155 135.03 26.5155 137.865C26.5155 140.701 28.8144 143 31.6501 143Z" fill="#070546"/>
<path d="M58.2422 143C61.078 143 63.3768 140.701 63.3768 137.865C63.3768 135.03 61.078 132.731 58.2422 132.731C55.4065 132.731 53.1077 135.03 53.1077 137.865C53.1077 140.701 55.4065 143 58.2422 143Z" fill="#070546"/>
<path d="M84.758 143C87.5933 143 89.8924 140.701 89.8924 137.865C89.8924 135.03 87.5933 132.731 84.758 132.731C81.9221 132.731 79.623 135.03 79.623 137.865C79.623 140.701 81.9221 143 84.758 143Z" fill="#070546"/>
<path d="M111.35 143C114.185 143 116.485 140.701 116.485 137.865C116.485 135.03 114.185 132.731 111.35 132.731C108.514 132.731 106.215 135.03 106.215 137.865C106.215 140.701 108.514 143 111.35 143Z" fill="#070546"/>
<path d="M137.866 143C140.701 143 143 140.701 143 137.865C143 135.03 140.701 132.731 137.866 132.731C135.03 132.731 132.731 135.03 132.731 137.865C132.731 140.701 135.03 143 137.866 143Z" fill="#070546"/>
</g>
</svg>
