<svg width="40" height="40" viewBox="0 0 40 40" fill="none" xmlns="http://www.w3.org/2000/svg">
<path d="M5.85938 0H34.1406C37.3712 0 40 2.62878 40 5.85938V34.1406C40 37.3712 37.3712 40 34.1406 40H24.6875H17.6562H5.85938C2.62878 40 0 37.3712 0 34.1406V5.85938C0 2.62878 2.62878 0 5.85938 0Z" fill="#6D64E2"/>
<path d="M16.5688 31.0156C15.3999 31.0156 14.1968 30.921 12.9864 30.7314C10.8546 30.3971 8.69661 29.2827 8.08596 28.9491L6.48438 28.074L8.21836 27.5041C10.1138 26.8813 11.2669 26.4948 12.6942 25.8897C11.265 25.198 10.1635 23.9538 9.63331 22.3454L9.22992 21.1216L9.56072 21.1721C9.24704 20.8561 8.99936 20.5354 8.80736 20.2438C8.12453 19.2073 7.763 17.9408 7.83993 16.8555L7.91582 15.7873L8.55575 16.035C8.2858 15.5255 8.0907 14.9814 7.97604 14.4112C7.6966 13.0204 7.93046 11.5429 8.63474 10.2508L9.19218 9.22815L9.9377 10.123C12.2955 12.9536 15.282 14.6327 18.8264 15.1243C18.6817 14.1269 18.7901 13.1645 19.1492 12.3017C19.5672 11.2972 20.3109 10.4454 21.2991 9.8382C22.3967 9.16405 23.7277 8.83738 25.047 8.91838C26.4467 9.00432 27.7175 9.52844 28.7267 10.4351C29.2196 10.3071 29.5828 10.1704 30.0736 9.98577C30.369 9.87468 30.7039 9.74855 31.1229 9.60428L32.6672 9.07254L31.6602 11.9468C31.7266 11.9413 31.795 11.9365 31.8666 11.9334L33.5156 11.8588L32.541 13.19C32.4851 13.2663 32.4709 13.2879 32.4511 13.3178C32.3725 13.4361 32.2747 13.5833 30.9369 15.3685C30.602 15.8155 30.4347 16.3978 30.4659 17.0082C30.5845 19.3281 30.2997 21.427 29.6189 23.2465C28.975 24.9678 27.9773 26.4447 26.6537 27.6362C25.0158 29.1102 22.9273 30.1195 20.446 30.6356C19.2288 30.8887 17.9217 31.0156 16.5688 31.0156Z" fill="white"/>
</svg>
