<svg width="40" height="20" viewBox="0 0 40 20" fill="none" xmlns="http://www.w3.org/2000/svg">
<g opacity="0.5">
<path d="M39.7013 9.25889C39.3443 8.88126 30.7564 0 20 0C9.24363 0 0.65582 8.88126 0.298711 9.25889C-0.0995703 9.68096 -0.0995703 10.319 0.298711 10.7411C0.65582 11.1187 9.24378 20 20 20C30.7563 20 39.3442 11.1187 39.7013 10.7411C40.0996 10.319 40.0996 9.68096 39.7013 9.25889ZM20 17.7778C15.4773 17.7778 11.7969 14.2882 11.7969 10C11.7969 5.71178 15.4773 2.22222 20 2.22222C24.5228 2.22222 28.2031 5.71178 28.2031 10C28.2031 14.2882 24.5228 17.7778 20 17.7778Z" fill="#070546"/>
<path d="M21.1719 7.77778C21.1719 6.66 21.7571 5.67667 22.6474 5.07185C21.8485 4.68407 20.9575 4.44444 20 4.44444C16.7693 4.44444 14.1407 6.93681 14.1407 10C14.1407 13.0632 16.7693 15.5556 20 15.5556C22.8925 15.5556 25.2866 13.553 25.7596 10.9364C23.3997 11.6568 21.1719 9.96459 21.1719 7.77778Z" fill="#070546"/>
</g>
</svg>
