<svg width="169" height="23" viewBox="0 0 169 23" fill="none" xmlns="http://www.w3.org/2000/svg">
<path d="M45.2808 18.4289C46.5018 18.4289 47.5257 18.4289 48.6074 18.4289C48.6074 19.8265 48.6074 21.1567 48.6074 22.549C48.363 22.5748 48.1231 22.6179 47.8822 22.6234C44.0387 22.7072 40.1949 22.7903 36.3511 22.8661C31.7171 22.9578 27.4345 19.9148 25.8109 15.3851C24.2672 11.0787 25.7317 5.99728 29.3463 3.11719C33.7078 -0.357762 39.5553 -0.210314 43.7041 3.47947C47.8077 7.12912 48.6461 12.9182 45.7544 17.633C45.6279 17.8389 45.507 18.0483 45.2808 18.4289ZM36.3372 18.6605C39.9302 18.7513 42.9332 15.7954 43.0152 12.0878C43.1046 8.04296 40.3417 5.00655 36.461 4.88445C32.8709 4.77164 29.7738 7.72778 29.6691 11.3673C29.5508 15.4821 32.3652 18.5603 36.3372 18.6605Z" fill="#070546"/>
<path d="M117.521 22.8383C111.086 22.5618 106.516 16.9453 106.946 11.0655C107.392 4.95848 112.778 0.263814 118.525 0.600535C124.733 0.964507 129.638 6.52654 129.182 12.5816C128.738 18.4966 123.25 23.3058 117.521 22.8383ZM124.732 11.7882C124.738 7.82463 121.87 4.79096 118.087 4.75906C114.351 4.72759 111.386 7.81259 111.381 11.7352C111.376 15.6404 114.422 18.7531 118.208 18.7119C121.913 18.6715 124.727 15.6856 124.732 11.7882Z" fill="#070546"/>
<path d="M22.2526 11.8061C22.2496 17.8475 17.166 22.881 11.0814 22.867C4.96211 22.8531 -0.00738527 17.8669 8.23924e-06 11.7485C0.00740175 5.6689 5.04576 0.606457 11.0941 0.60181C17.157 0.596952 22.2557 5.71664 22.2526 11.8061ZM4.46041 11.7802C4.47329 15.6662 7.43197 18.6967 11.2276 18.7115C14.9155 18.7256 17.8279 15.6493 17.8239 11.7436C17.8198 7.84133 14.8388 4.73964 11.1116 4.76013C7.3331 4.78083 4.44731 7.82632 4.46041 11.7802Z" fill="#070546"/>
<path d="M150.219 22.6176C148.519 22.6176 147.027 22.6476 145.538 22.5889C145.283 22.5789 144.982 22.2336 144.805 21.9733C143.612 20.2126 142.404 18.4591 141.291 16.6477C140.833 15.9034 140.306 15.6172 139.47 15.7072C138.949 15.7634 138.417 15.7176 137.764 15.7176C137.764 18.0478 137.764 20.2853 137.764 22.5722C136.303 22.5722 134.969 22.5722 133.561 22.5722C133.561 15.357 133.561 8.17977 133.561 0.901808C133.936 0.884908 134.299 0.846884 134.662 0.856179C137.285 0.923354 139.933 0.804634 142.527 1.12467C145.569 1.49984 147.774 3.21217 148.384 6.37427C149.008 9.60524 148.337 12.4758 145.49 14.5228C145.415 14.5768 145.349 14.6447 145.206 14.7697C146.837 17.3232 148.473 19.8833 150.219 22.6176ZM137.816 11.5622C138.761 11.5622 139.6 11.5742 140.438 11.5573C140.874 11.5485 141.315 11.5197 141.744 11.4464C143.096 11.2158 144.07 9.99856 144.143 8.48585C144.22 6.87745 143.419 5.40488 142.11 5.1968C140.718 4.97563 139.282 5.02718 137.816 4.95747C137.816 7.23974 137.816 9.3228 137.816 11.5622Z" fill="#070546"/>
<path d="M158.13 13.7417C158.13 15.3654 158.13 16.8263 158.13 18.4347C161.749 18.4347 165.353 18.4347 169 18.4347C169 19.8847 169 21.1881 169 22.559C163.963 22.559 158.944 22.559 153.856 22.559C153.856 15.3584 153.856 8.18394 153.856 0.930908C158.754 0.930908 163.64 0.930908 168.586 0.930908C168.586 2.26512 168.586 3.56321 168.586 4.98931C165.114 4.98931 161.662 4.98931 158.145 4.98931C158.145 6.56709 158.145 8.01854 158.145 9.60434C161.212 9.60434 164.256 9.60434 167.351 9.60434C167.351 11.0357 167.351 12.3336 167.351 13.7417C164.289 13.7417 161.272 13.7417 158.13 13.7417Z" fill="#070546"/>
<path d="M76.1485 0.0160521C79.3917 7.4873 82.6349 14.9583 85.9578 22.6129C84.3041 22.6129 82.7881 22.6324 81.2739 22.5872C81.0943 22.5819 80.8598 22.2519 80.7627 22.0248C80.3326 21.0191 79.9825 19.9779 79.5144 18.9916C79.3824 18.7134 78.9525 18.4124 78.6519 18.4044C76.6812 18.352 74.7084 18.3989 72.7371 18.3636C72.1906 18.3539 71.9629 18.5873 71.7857 19.045C71.4135 20.0066 70.9717 20.9422 70.6205 21.911C70.4149 22.4775 70.0894 22.6611 69.5034 22.6383C68.4185 22.5963 67.3305 22.626 66.0692 22.626C69.387 14.9824 72.6387 7.49132 75.8901 0C75.9763 0.00549232 76.0623 0.010771 76.1485 0.0160521ZM73.6245 14.6879C75.0737 14.6879 76.3895 14.6879 77.8454 14.6879C77.1525 12.9376 76.5023 11.2954 75.7817 9.47531C75.0297 11.2928 74.3457 12.9458 73.6245 14.6879Z" fill="#070546"/>
<path d="M103.53 2.4816C102.975 3.81264 102.44 5.09679 101.86 6.48592C99.8669 5.13439 97.796 4.35849 95.4483 5.00088C93.9692 5.40563 92.8289 6.34059 91.9839 7.58883C90.1526 10.2948 90.4488 14.6306 92.5633 16.7635C95.0171 19.2387 98.678 19.3775 102.236 17.0329C102.783 18.2255 103.336 19.3939 103.837 20.5845C103.888 20.7062 103.669 21.0364 103.497 21.1432C97.7682 24.6999 87.7282 22.992 86.4086 13.4749C86.0663 11.0069 86.4472 8.61483 87.5068 6.33784C89.2322 2.62989 93.1772 0.338325 97.2656 0.61104C99.486 0.759121 101.569 1.26209 103.53 2.4816Z" fill="#070546"/>
<path d="M51.5273 5.02116C51.5273 3.5921 51.5273 2.29548 51.5273 0.925781C56.3864 0.925781 61.2088 0.925781 66.0913 0.925781C66.0913 2.26105 66.0913 3.5602 66.0913 4.98355C64.3794 4.98355 62.6782 4.98355 60.8839 4.98355C60.8839 10.9068 60.8839 16.7076 60.8839 22.5672C59.4259 22.5672 58.0641 22.5672 56.5898 22.5672C56.5898 16.7403 56.5898 10.9465 56.5898 5.02116C54.8475 5.02116 53.2116 5.02116 51.5273 5.02116Z" fill="#070546"/>
</svg>
