<svg width="169" height="23" viewBox="0 0 169 23" fill="none" xmlns="http://www.w3.org/2000/svg">
<path d="M45.2808 18.4289C46.5018 18.4289 47.5257 18.4289 48.6075 18.4289C48.6075 19.8264 48.6075 21.1566 48.6075 22.5489C48.3631 22.5747 48.1231 22.6178 47.8823 22.6233C44.0387 22.7072 40.1949 22.7902 36.3511 22.866C31.7171 22.9577 27.4346 19.9147 25.811 15.385C24.2672 11.0786 25.7317 5.9972 29.3463 3.11711C33.7079 -0.357844 39.5553 -0.210396 43.7041 3.47939C47.8077 7.12903 48.6461 12.9181 45.7544 17.6329C45.6279 17.8388 45.5071 18.0482 45.2808 18.4289ZM36.3372 18.6604C39.9302 18.7512 42.9333 15.7953 43.0152 12.0878C43.1046 8.04287 40.3417 5.00646 36.461 4.88437C32.8709 4.77156 29.7739 7.7277 29.6691 11.3672C29.5508 15.482 32.3652 18.5602 36.3372 18.6604Z" fill="white"/>
<path d="M117.521 22.8383C111.086 22.5618 106.516 16.9453 106.946 11.0656C107.392 4.95851 112.778 0.263848 118.525 0.60057C124.733 0.964542 129.638 6.52657 129.182 12.5816C128.738 18.4967 123.25 23.3058 117.521 22.8383ZM124.732 11.7882C124.738 7.82466 121.87 4.79099 118.087 4.7591C114.351 4.72762 111.386 7.81262 111.381 11.7352C111.376 15.6404 114.422 18.7531 118.208 18.7119C121.913 18.6716 124.727 15.6857 124.732 11.7882Z" fill="white"/>
<path d="M22.2526 11.8062C22.2496 17.8475 17.166 22.881 11.0814 22.8671C4.96211 22.8531 -0.00738527 17.8669 8.23924e-06 11.7485C0.00740175 5.66892 5.04576 0.606477 11.0941 0.601829C17.157 0.596971 22.2557 5.71666 22.2526 11.8062ZM4.46041 11.7802C4.47329 15.6662 7.43197 18.6967 11.2276 18.7115C14.9155 18.7256 17.8279 15.6493 17.8239 11.7436C17.8198 7.84135 14.8388 4.73966 11.1116 4.76015C7.3331 4.78085 4.44731 7.82634 4.46041 11.7802Z" fill="white"/>
<path d="M150.219 22.6176C148.519 22.6176 147.027 22.6476 145.538 22.5889C145.283 22.5789 144.982 22.2335 144.805 21.9733C143.612 20.2126 142.404 18.4591 141.291 16.6476C140.833 15.9034 140.306 15.6172 139.47 15.7072C138.949 15.7634 138.417 15.7175 137.764 15.7175C137.764 18.0478 137.764 20.2853 137.764 22.5722C136.303 22.5722 134.969 22.5722 133.561 22.5722C133.561 15.357 133.561 8.17976 133.561 0.901798C133.936 0.884899 134.299 0.846874 134.662 0.856169C137.285 0.923344 139.933 0.804625 142.527 1.12466C145.569 1.49983 147.774 3.21217 148.384 6.37426C149.008 9.60523 148.337 12.4758 145.49 14.5228C145.414 14.5768 145.349 14.6446 145.206 14.7697C146.837 17.3232 148.473 19.8833 150.219 22.6176ZM137.816 11.5622C138.761 11.5622 139.6 11.5742 140.438 11.5573C140.874 11.5484 141.315 11.5197 141.744 11.4464C143.096 11.2157 144.07 9.99856 144.143 8.48584C144.22 6.87744 143.419 5.40487 142.11 5.19679C140.717 4.97562 139.282 5.02717 137.816 4.95746C137.816 7.23973 137.816 9.32279 137.816 11.5622Z" fill="white"/>
<path d="M158.13 13.7418C158.13 15.3654 158.13 16.8264 158.13 18.4348C161.749 18.4348 165.353 18.4348 169 18.4348C169 19.8847 169 21.1881 169 22.5591C163.963 22.5591 158.944 22.5591 153.856 22.5591C153.856 15.3584 153.856 8.18399 153.856 0.930952C158.754 0.930952 163.64 0.930952 168.586 0.930952C168.586 2.26516 168.586 3.56325 168.586 4.98936C165.114 4.98936 161.662 4.98936 158.145 4.98936C158.145 6.56713 158.145 8.01858 158.145 9.60438C161.213 9.60438 164.256 9.60438 167.351 9.60438C167.351 11.0358 167.351 12.3336 167.351 13.7418C164.289 13.7418 161.272 13.7418 158.13 13.7418Z" fill="white"/>
<path d="M76.1485 0.0160521C79.3918 7.4873 82.635 14.9583 85.9578 22.6129C84.3042 22.6129 82.7881 22.6324 81.2739 22.5872C81.0944 22.5819 80.8599 22.2519 80.7627 22.0248C80.3326 21.0191 79.9826 19.9779 79.5145 18.9916C79.3825 18.7134 78.9526 18.4124 78.652 18.4044C76.6813 18.352 74.7085 18.3989 72.7372 18.3636C72.1907 18.3539 71.963 18.5873 71.7857 19.045C71.4135 20.0066 70.9718 20.9422 70.6205 21.911C70.415 22.4775 70.0894 22.6611 69.5035 22.6383C68.4185 22.5963 67.3306 22.626 66.0693 22.626C69.3871 14.9824 72.6387 7.49132 75.8902 0C75.9764 0.00549232 76.0623 0.010771 76.1485 0.0160521ZM73.6246 14.6879C75.0737 14.6879 76.3896 14.6879 77.8454 14.6879C77.1526 12.9376 76.5024 11.2954 75.7818 9.47531C75.0298 11.2928 74.3458 12.9458 73.6246 14.6879Z" fill="white"/>
<path d="M103.53 2.48168C102.975 3.81273 102.44 5.09687 101.86 6.48601C99.8669 5.13447 97.7961 4.35858 95.4483 5.00097C93.9692 5.40571 92.8289 6.34067 91.9839 7.58891C90.1527 10.2949 90.4488 14.6307 92.5634 16.7636C95.0172 19.2388 98.678 19.3775 102.236 17.033C102.783 18.2256 103.336 19.394 103.837 20.5846C103.888 20.7063 103.669 21.0364 103.498 21.1433C97.7682 24.7 87.7282 22.9921 86.4086 13.475C86.0664 11.007 86.4472 8.61491 87.5068 6.33792C89.2323 2.62997 93.1772 0.338409 97.2656 0.611124C99.486 0.759205 101.57 1.26218 103.53 2.48168Z" fill="white"/>
<path d="M51.5273 5.02104C51.5273 3.59198 51.5273 2.29537 51.5273 0.925665C56.3863 0.925665 61.2088 0.925665 66.0912 0.925665C66.0912 2.26093 66.0912 3.56008 66.0912 4.98344C64.3793 4.98344 62.6782 4.98344 60.8839 4.98344C60.8839 10.9067 60.8839 16.7074 60.8839 22.5671C59.4259 22.5671 58.064 22.5671 56.5897 22.5671C56.5897 16.7402 56.5897 10.9464 56.5897 5.02104C54.8474 5.02104 53.2115 5.02104 51.5273 5.02104Z" fill="white"/>
</svg>
