<svg width="424" height="216" viewBox="0 0 424 216" fill="none" xmlns="http://www.w3.org/2000/svg">
<path d="M2.23493 49.1936H134.597C135.115 49.1936 135.338 49.5127 135.338 49.6893V145.085C135.338 145.262 135.115 145.581 134.597 145.581H2.23493C1.71748 145.581 1.49414 145.262 1.49414 145.085V49.6893C1.49414 49.5127 1.71748 49.1936 2.23493 49.1936Z" stroke="#6D64E2" stroke-opacity="0.05" stroke-linecap="round"/>
<path d="M33.796 68.6705H14.3887C13.8866 68.6705 13.4796 69.1227 13.4796 69.6805V88.886C13.4796 89.4438 13.8866 89.896 14.3887 89.896H33.796C34.298 89.896 34.705 89.4438 34.705 88.886V69.6805C34.705 69.1227 34.298 68.6705 33.796 68.6705Z" fill="#6C63FF"/>
<path d="M128.409 68.6705H53.3711C52.6922 68.6705 52.1418 69.1492 52.1418 69.7397V70.0985C52.1418 70.6889 52.6922 71.1676 53.3711 71.1676H128.409C129.088 71.1676 129.638 70.6889 129.638 70.0985V69.7397C129.638 69.1492 129.088 68.6705 128.409 68.6705Z" fill="#555187" fill-opacity="0.05"/>
<path d="M128.409 77.4104H53.3711C52.6922 77.4104 52.1418 77.6497 52.1418 77.945V78.1244C52.1418 78.4196 52.6922 78.659 53.3711 78.659H128.409C129.088 78.659 129.638 78.4196 129.638 78.1244V77.945C129.638 77.6497 129.088 77.4104 128.409 77.4104Z" fill="#555187" fill-opacity="0.05"/>
<path d="M128.408 101.133H13.0741C12.3945 101.133 11.8436 101.851 11.8436 102.737V103.275C11.8436 104.161 12.3945 104.879 13.0741 104.879H128.408C129.087 104.879 129.638 104.161 129.638 103.275V102.737C129.638 101.851 129.087 101.133 128.408 101.133Z" fill="#555187" fill-opacity="0.05"/>
<path d="M128.408 108.624H13.0741C12.3945 108.624 11.8436 109.103 11.8436 109.693V110.052C11.8436 110.643 12.3945 111.121 13.0741 111.121H128.408C129.087 111.121 129.638 110.643 129.638 110.052V109.693C129.638 109.103 129.087 108.624 128.408 108.624Z" fill="#555187" fill-opacity="0.05"/>
<path d="M128.408 118.613H13.0741C12.3945 118.613 11.8436 118.852 11.8436 119.147V119.327C11.8436 119.622 12.3945 119.861 13.0741 119.861H128.408C129.087 119.861 129.638 119.622 129.638 119.327V119.147C129.638 118.852 129.087 118.613 128.408 118.613Z" fill="#555187" fill-opacity="0.05"/>
<path d="M98.9692 124.855H13.0642C12.3901 124.855 11.8436 125.334 11.8436 125.925V126.283C11.8436 126.874 12.3901 127.353 13.0642 127.353H98.9692C99.6432 127.353 100.19 126.874 100.19 126.283V125.925C100.19 125.334 99.6432 124.855 98.9692 124.855Z" fill="#555187" fill-opacity="0.05"/>
<g clip-path="url(#clip0)">
<path d="M305.828 7.62939e-06H126.573C125.719 0.00128485 124.901 0.339114 124.297 0.939449C123.693 1.53978 123.354 2.35365 123.353 3.20265V108.534C123.354 109.383 123.693 110.197 124.297 110.797C124.901 111.397 125.719 111.735 126.573 111.737H305.828C306.682 111.735 307.5 111.397 308.104 110.797C308.707 110.197 309.047 109.383 309.048 108.534V3.20265C309.047 2.35365 308.707 1.53978 308.104 0.939449C307.5 0.339114 306.682 0.00128485 305.828 7.62939e-06V7.62939e-06ZM308.333 108.534C308.332 109.194 308.068 109.827 307.598 110.294C307.129 110.761 306.492 111.024 305.828 111.025H126.573C125.909 111.024 125.272 110.761 124.803 110.294C124.333 109.827 124.069 109.194 124.068 108.534V3.20265C124.069 2.54223 124.333 1.90908 124.803 1.44209C125.272 0.975109 125.909 0.712438 126.573 0.711705H305.828C306.492 0.712438 307.129 0.975109 307.598 1.44209C308.068 1.90908 308.332 2.54223 308.333 3.20265V108.534Z" fill="#D6D5DF"/>
<path d="M308.69 12.0989H123.71V12.8106H308.69V12.0989Z" fill="#D6D5DF"/>
<path d="M129.793 8.0066C130.781 8.0066 131.582 7.21001 131.582 6.22736C131.582 5.24471 130.781 4.44811 129.793 4.44811C128.805 4.44811 128.004 5.24471 128.004 6.22736C128.004 7.21001 128.805 8.0066 129.793 8.0066Z" fill="#DACDCD"/>
<path d="M135.16 8.0066C136.148 8.0066 136.949 7.21001 136.949 6.22736C136.949 5.24471 136.148 4.44811 135.16 4.44811C134.172 4.44811 133.371 5.24471 133.371 6.22736C133.371 7.21001 134.172 8.0066 135.16 8.0066Z" fill="#DACDCD"/>
<path d="M140.527 8.0066C141.515 8.0066 142.316 7.21001 142.316 6.22736C142.316 5.24471 141.515 4.44811 140.527 4.44811C139.539 4.44811 138.738 5.24471 138.738 6.22736C138.738 7.21001 139.539 8.0066 140.527 8.0066Z" fill="#DACDCD"/>
<path d="M259.494 154.26H172.907C172.101 154.26 171.328 153.941 170.758 153.374C170.188 152.807 169.867 152.038 169.866 151.236V54.8007C169.867 53.9988 170.188 53.23 170.758 52.6629C171.328 52.0959 172.101 51.7769 172.907 51.776H259.494C260.3 51.7769 261.073 52.0959 261.643 52.6629C262.213 53.23 262.534 53.9988 262.535 54.8007V151.236C262.534 152.038 262.213 152.807 261.643 153.374C261.073 153.941 260.3 154.26 259.494 154.26Z" fill="#00B496"/>
<path d="M241.604 101.239H190.797C189.611 101.239 188.473 100.77 187.634 99.9362C186.796 99.102 186.324 97.9706 186.324 96.7909C186.324 95.6112 186.796 94.4798 187.634 93.6456C188.473 92.8114 189.611 92.3428 190.797 92.3428H241.604C242.79 92.3428 243.928 92.8114 244.766 93.6456C245.605 94.4798 246.076 95.6112 246.076 96.7909C246.076 97.9706 245.605 99.102 244.766 99.9362C243.928 100.77 242.79 101.239 241.604 101.239V101.239Z" fill="white" fill-opacity="0.72"/>
<path d="M241.604 117.786H190.797C189.611 117.786 188.473 117.317 187.634 116.483C186.796 115.649 186.324 114.518 186.324 113.338C186.324 112.158 186.796 111.027 187.634 110.193C188.473 109.358 189.611 108.89 190.797 108.89H241.604C242.79 108.89 243.928 109.358 244.766 110.193C245.605 111.027 246.076 112.158 246.076 113.338C246.076 114.518 245.605 115.649 244.766 116.483C243.928 117.317 242.79 117.786 241.604 117.786V117.786Z" fill="white" fill-opacity="0.72"/>
<path d="M241.604 134.511H190.797C189.611 134.511 188.473 134.042 187.634 133.208C186.796 132.374 186.324 131.242 186.324 130.063C186.324 128.883 186.796 127.752 187.634 126.917C188.473 126.083 189.611 125.615 190.797 125.615H241.604C242.79 125.615 243.928 126.083 244.766 126.917C245.605 127.752 246.076 128.883 246.076 130.063C246.076 131.242 245.605 132.374 244.766 133.208C243.928 134.042 242.79 134.511 241.604 134.511V134.511Z" fill="white" fill-opacity="0.72"/>
<path d="M226.04 79.3543H206.361C205.175 79.3543 204.037 78.8857 203.198 78.0515C202.36 77.2173 201.889 76.0859 201.889 74.9062C201.889 73.7265 202.36 72.5951 203.198 71.7609C204.037 70.9267 205.175 70.4581 206.361 70.4581H226.04C227.226 70.4581 228.363 70.9267 229.202 71.7609C230.041 72.5951 230.512 73.7265 230.512 74.9062C230.512 76.0859 230.041 77.2173 229.202 78.0515C228.363 78.8857 227.226 79.3543 226.04 79.3543Z" fill="white" fill-opacity="0.72"/>
<path d="M289.906 25.2653H142.495C140.42 25.2653 138.738 26.9381 138.738 29.0017V29.0017C138.738 31.0653 140.42 32.7381 142.495 32.7381H289.906C291.981 32.7381 293.663 31.0653 293.663 29.0017C293.663 26.9381 291.981 25.2653 289.906 25.2653Z" fill="#DACDCD"/>
</g>
<defs>
<clipPath id="clip0">
<rect width="299.653" height="216" fill="white" transform="translate(123.353)"/>
</clipPath>
</defs>
</svg>
