<svg width="97" height="97" viewBox="0 0 97 97" fill="none" xmlns="http://www.w3.org/2000/svg">
<path d="M55.1608 2.50921C51.3441 5.84266 45.6573 5.84266 41.8406 2.50921C35.8272 -2.7379 26.402 0.700292 25.1609 8.59434C24.3751 13.6076 20.0191 17.2703 14.9575 17.1768C6.98628 17.029 1.97136 25.7368 6.08296 32.5814C8.69586 36.9287 7.70853 42.5406 3.77051 45.73C-2.43141 50.7545 -0.690095 60.6539 6.85187 63.2485C11.641 64.8965 14.4834 69.8312 13.5129 74.8108C11.9844 82.6544 19.1545 89.1174 26.5957 86.246C31.3194 84.4221 37.1765 86.3713 39.6252 90.8103C43.4848 97.8046 53.5147 97.8046 57.3743 90.8103C59.8248 86.3713 65.1682 84.4221 69.892 86.246C77.3332 89.1174 85.017 82.6544 83.4884 74.8108C82.5179 69.8312 85.3604 64.8965 90.1495 63.2485C97.6896 60.6539 99.4309 50.7545 93.2309 45.73C89.291 42.5406 88.3055 36.9287 90.9166 32.5814C95.03 25.7368 90.0151 17.029 82.042 17.1768C76.9805 17.2703 72.6262 13.6076 71.8386 8.59434C71.0043 3.29111 66.4803 0.000687779 61.7771 0.000687779C59.4777 0.000687779 57.1354 0.786358 55.1608 2.50921Z" fill="#070546"/>
<path d="M17.6072 48.0289C17.6072 65.1302 31.4388 78.9916 48.4992 78.9916C65.5615 78.9916 79.3931 65.1302 79.3931 48.0289C79.3931 30.9258 65.5615 17.0645 48.4992 17.0645C31.4388 17.0645 17.6072 30.9258 17.6072 48.0289Z" fill="#070546"/>
<path d="M14.9482 17.6767H14.9483C20.2602 17.7749 24.8304 13.9312 25.6548 8.672C26.8351 1.16511 35.7958 -2.10146 41.5117 2.8858C45.5167 6.38375 51.4844 6.3838 55.4895 2.88596C57.3697 1.24552 59.594 0.500688 61.7771 0.500688C66.2552 0.500688 70.5518 3.63221 71.3447 8.67204C72.1709 13.931 76.7391 17.7749 82.0513 17.6767C89.6295 17.5363 94.4001 25.8143 90.488 32.3238L90.4879 32.324C87.7489 36.8844 88.7822 42.7719 92.916 46.1185C98.8118 50.8964 97.1547 60.3092 89.9868 62.7757C84.9612 64.5051 81.9796 69.6828 82.9977 74.9065C84.4515 82.3665 77.144 88.5085 70.072 85.7795C65.1145 83.8654 59.5076 85.9114 56.9366 90.5687L56.9365 90.5687C53.267 97.2184 43.7324 97.2184 40.063 90.5687C37.4863 85.8978 31.3584 83.8711 26.4157 85.7795C19.3748 88.4964 12.5434 82.3998 14.0037 74.9065C15.0218 69.6828 12.0401 64.5051 7.01457 62.7757L7.01452 62.7757C-0.155224 60.3092 -1.81224 50.8964 4.08525 46.1185C8.21716 42.772 9.25266 36.8845 6.51151 32.3238C2.60123 25.8141 7.37209 17.5363 14.9482 17.6767ZM17.1072 48.0289C17.1072 65.4053 31.1616 79.4916 48.4992 79.4916C65.8387 79.4916 79.8931 65.4053 79.8931 48.0289C79.8931 30.6507 65.8387 16.5645 48.4992 16.5645C31.1616 16.5645 17.1072 30.6507 17.1072 48.0289ZM48.4992 78.4916C31.716 78.4916 18.1072 64.8551 18.1072 48.0289C18.1072 31.2008 31.716 17.5645 48.4992 17.5645C65.2843 17.5645 78.8931 31.2009 78.8931 48.0289C78.8931 64.8551 65.2843 78.4916 48.4992 78.4916Z" stroke="white" stroke-opacity="0.15"/>
</svg>
