<svg width="39" height="38" viewBox="0 0 39 38" fill="none" xmlns="http://www.w3.org/2000/svg">
<path d="M38.898 14.358C38.6412 13.5551 37.9407 12.9866 37.1153 12.9107L25.8572 11.8715L21.4079 1.28033C21.0794 0.502209 20.332 0 19.5 0C18.6681 0 17.9203 0.502209 17.5939 1.28033L13.1446 11.8715L1.88471 12.9107C1.0593 12.9882 0.360358 13.5566 0.102084 14.358C-0.154703 15.161 0.0824451 16.0417 0.706707 16.5983L9.21696 24.1856L6.70771 35.4224C6.52413 36.2486 6.83953 37.103 7.51378 37.5985C7.8762 37.8663 8.30199 38 8.72928 38C9.09645 38 9.46393 37.9008 9.79213 37.7011L19.5 31.7992L29.2061 37.7011C29.9182 38.1337 30.8135 38.0941 31.4863 37.5985C32.1605 37.103 32.4759 36.2486 32.2923 35.4224L29.7831 24.1856L38.2933 16.5983C38.9173 16.0417 39.1548 15.1628 38.898 14.358Z" fill="#00B496"/>
</svg>
