<svg width="39" height="38" viewBox="0 0 39 38" fill="none" xmlns="http://www.w3.org/2000/svg">
<path d="M37.0237 13.9065L37.0234 13.9065L25.7653 12.8673L25.1677 12.8121L24.9352 12.2588L20.4867 1.66926C20.4866 1.66911 20.4865 1.66896 20.4865 1.6688C20.3108 1.2531 19.921 1 19.5 1C19.0783 1 18.6895 1.2536 18.5161 1.66716L18.5159 1.66764L14.0666 12.2588L13.8341 12.8121L13.2365 12.8673L1.97813 13.9063C1.97795 13.9064 1.97777 13.9064 1.97759 13.9064C1.5602 13.9458 1.19292 14.2347 1.05421 14.6638C0.916841 15.0948 1.04671 15.5616 1.37218 15.8519C1.3722 15.8519 1.37223 15.8519 1.37225 15.852L9.88243 23.4392L10.321 23.8302L10.1929 24.4036L7.68391 35.6393C7.68386 35.6395 7.68382 35.6397 7.68378 35.6399C7.58478 36.0864 7.75727 36.5365 8.106 36.7928L8.10798 36.7942C8.29506 36.9324 8.51175 37 8.72928 37C8.91562 37 9.10292 36.9499 9.27237 36.8468L9.27265 36.8466L18.9805 30.9447L19.5001 30.6289L20.0196 30.9448L29.7254 36.8465C29.7255 36.8465 29.7256 36.8466 29.7257 36.8467C30.0907 37.0683 30.5466 37.0487 30.8932 36.7934L30.894 36.7928C31.2429 36.5364 31.4154 36.0862 31.3162 35.6395C31.3162 35.6395 31.3162 35.6394 31.3161 35.6393L28.8071 24.4036L28.6791 23.8302L29.1176 23.4392L37.6276 15.8521C37.9533 15.5616 38.0834 15.0958 37.9455 14.6627L37.0237 13.9065ZM37.0237 13.9065C37.4407 13.9449 37.808 14.2335 37.9453 14.662L37.0237 13.9065Z" stroke="#00B496" stroke-width="2"/>
</svg>
