<svg width="225" height="75" viewBox="0 0 225 75" fill="none" xmlns="http://www.w3.org/2000/svg">
<path opacity="0.5" d="M9.058 67.424H7.098V70H6.09V67.424H0.56V66.696L5.754 60.2H6.874L1.862 66.528H6.118V64.26H7.098V66.528H9.058V67.424ZM11.0133 70.07C10.808 70.07 10.6306 69.9953 10.4813 69.846C10.3413 69.6967 10.2713 69.5147 10.2713 69.3C10.2713 69.0853 10.3413 68.908 10.4813 68.768C10.6306 68.6187 10.808 68.544 11.0133 68.544C11.2186 68.544 11.396 68.6187 11.5453 68.768C11.6946 68.908 11.7693 69.0853 11.7693 69.3C11.7693 69.5147 11.6946 69.6967 11.5453 69.846C11.396 69.9953 11.2186 70.07 11.0133 70.07ZM16.2761 60.116C17.5734 60.116 18.5674 60.5453 19.2581 61.404C19.9488 62.2533 20.2941 63.4573 20.2941 65.016C20.2941 66.108 20.1074 67.032 19.7341 67.788C19.3608 68.544 18.8381 69.118 18.1661 69.51C17.4941 69.8927 16.7101 70.084 15.8141 70.084C14.8434 70.084 14.0688 69.9067 13.4901 69.552L13.8961 68.74C14.3628 69.048 14.9974 69.202 15.8001 69.202C16.8828 69.202 17.7321 68.8613 18.3481 68.18C18.9641 67.4893 19.2721 66.4907 19.2721 65.184C19.2721 64.9413 19.2581 64.6753 19.2301 64.386C18.9874 64.918 18.6001 65.3333 18.0681 65.632C17.5361 65.9213 16.9248 66.066 16.2341 66.066C15.5901 66.066 15.0161 65.9447 14.5121 65.702C14.0174 65.4593 13.6301 65.1187 13.3501 64.68C13.0701 64.232 12.9301 63.714 12.9301 63.126C12.9301 62.5287 13.0748 62.0013 13.3641 61.544C13.6534 61.0867 14.0501 60.7367 14.5541 60.494C15.0674 60.242 15.6414 60.116 16.2761 60.116ZM16.3881 65.212C16.8828 65.212 17.3168 65.1187 17.6901 64.932C18.0728 64.7453 18.3714 64.4887 18.5861 64.162C18.8008 63.8353 18.9081 63.4713 18.9081 63.07C18.9081 62.6967 18.8054 62.3513 18.6001 62.034C18.4041 61.7167 18.1101 61.46 17.7181 61.264C17.3261 61.068 16.8594 60.97 16.3181 60.97C15.6088 60.97 15.0301 61.166 14.5821 61.558C14.1434 61.9407 13.9241 62.454 13.9241 63.098C13.9241 63.742 14.1434 64.2553 14.5821 64.638C15.0301 65.0207 15.6321 65.212 16.3881 65.212ZM24.8073 60.116C26.1047 60.116 27.0987 60.5453 27.7893 61.404C28.48 62.2533 28.8253 63.4573 28.8253 65.016C28.8253 66.108 28.6387 67.032 28.2653 67.788C27.892 68.544 27.3693 69.118 26.6973 69.51C26.0253 69.8927 25.2413 70.084 24.3453 70.084C23.3747 70.084 22.6 69.9067 22.0213 69.552L22.4273 68.74C22.894 69.048 23.5287 69.202 24.3313 69.202C25.414 69.202 26.2633 68.8613 26.8793 68.18C27.4953 67.4893 27.8033 66.4907 27.8033 65.184C27.8033 64.9413 27.7893 64.6753 27.7613 64.386C27.5187 64.918 27.1313 65.3333 26.5993 65.632C26.0673 65.9213 25.456 66.066 24.7653 66.066C24.1213 66.066 23.5473 65.9447 23.0433 65.702C22.5487 65.4593 22.1613 65.1187 21.8813 64.68C21.6013 64.232 21.4613 63.714 21.4613 63.126C21.4613 62.5287 21.606 62.0013 21.8953 61.544C22.1847 61.0867 22.5813 60.7367 23.0853 60.494C23.5987 60.242 24.1727 60.116 24.8073 60.116ZM24.9193 65.212C25.414 65.212 25.848 65.1187 26.2213 64.932C26.604 64.7453 26.9027 64.4887 27.1173 64.162C27.332 63.8353 27.4393 63.4713 27.4393 63.07C27.4393 62.6967 27.3367 62.3513 27.1313 62.034C26.9353 61.7167 26.6413 61.46 26.2493 61.264C25.8573 61.068 25.3907 60.97 24.8493 60.97C24.14 60.97 23.5613 61.166 23.1133 61.558C22.6747 61.9407 22.4553 62.454 22.4553 63.098C22.4553 63.742 22.6747 64.2553 23.1133 64.638C23.5613 65.0207 24.1633 65.212 24.9193 65.212ZM33.5552 58.212H34.4652L29.8452 71.4H28.9352L33.5552 58.212ZM40.9427 64.218C42.3613 64.218 43.3927 64.4747 44.0367 64.988C44.69 65.492 45.0167 66.2013 45.0167 67.116C45.0167 67.6853 44.8813 68.194 44.6107 68.642C44.3493 69.09 43.9527 69.4447 43.4207 69.706C42.8887 69.958 42.2353 70.084 41.4607 70.084C40.7607 70.084 40.0933 69.972 39.4587 69.748C38.8333 69.5147 38.3293 69.2067 37.9467 68.824L38.4367 68.026C38.7633 68.362 39.1927 68.6373 39.7247 68.852C40.2567 69.0573 40.8307 69.16 41.4467 69.16C42.2587 69.16 42.884 68.978 43.3227 68.614C43.7707 68.25 43.9947 67.7647 43.9947 67.158C43.9947 66.486 43.7427 65.9773 43.2387 65.632C42.744 65.2867 41.904 65.114 40.7187 65.114H38.6327L39.1367 60.2H44.4987V61.096H40.0187L39.6827 64.218H40.9427ZM57.0024 64.946C57.6464 65.086 58.1411 65.366 58.4864 65.786C58.8411 66.1967 59.0184 66.7287 59.0184 67.382C59.0184 68.222 58.7058 68.8707 58.0804 69.328C57.4644 69.776 56.5498 70 55.3364 70H50.8284V60.2H55.0564C56.1484 60.2 56.9931 60.4193 57.5904 60.858C58.1971 61.2967 58.5004 61.9173 58.5004 62.72C58.5004 63.2613 58.3651 63.7233 58.0944 64.106C57.8331 64.4793 57.4691 64.7593 57.0024 64.946ZM51.8644 61.054V64.61H54.9864C55.7798 64.61 56.3911 64.4607 56.8204 64.162C57.2498 63.854 57.4644 63.4107 57.4644 62.832C57.4644 62.2533 57.2498 61.8147 56.8204 61.516C56.3911 61.208 55.7798 61.054 54.9864 61.054H51.8644ZM55.3224 69.146C56.1998 69.146 56.8624 68.9967 57.3104 68.698C57.7584 68.3993 57.9824 67.9327 57.9824 67.298C57.9824 66.0753 57.0958 65.464 55.3224 65.464H51.8644V69.146H55.3224ZM63.7491 62.58C64.7104 62.58 65.4478 62.8227 65.9611 63.308C66.4744 63.784 66.7311 64.4933 66.7311 65.436V70H65.7791V68.852C65.5551 69.2347 65.2238 69.5333 64.7851 69.748C64.3558 69.9627 63.8424 70.07 63.2451 70.07C62.4238 70.07 61.7704 69.874 61.2851 69.482C60.7998 69.09 60.5571 68.572 60.5571 67.928C60.5571 67.3027 60.7811 66.7987 61.2291 66.416C61.6864 66.0333 62.4098 65.842 63.3991 65.842H65.7371V65.394C65.7371 64.7593 65.5598 64.2787 65.2051 63.952C64.8504 63.616 64.3324 63.448 63.6511 63.448C63.1844 63.448 62.7364 63.5273 62.3071 63.686C61.8778 63.8353 61.5091 64.0453 61.2011 64.316L60.7531 63.574C61.1264 63.2567 61.5744 63.014 62.0971 62.846C62.6198 62.6687 63.1704 62.58 63.7491 62.58ZM63.3991 69.286C63.9591 69.286 64.4398 69.16 64.8411 68.908C65.2424 68.6467 65.5411 68.2733 65.7371 67.788V66.584H63.4271C62.1671 66.584 61.5371 67.0227 61.5371 67.9C61.5371 68.3293 61.7004 68.67 62.0271 68.922C62.3538 69.1647 62.8111 69.286 63.3991 69.286ZM71.4049 70.07C70.8076 70.07 70.2336 69.986 69.6829 69.818C69.1416 69.6407 68.7169 69.4213 68.4089 69.16L68.8569 68.376C69.1649 68.6187 69.5523 68.8193 70.0189 68.978C70.4856 69.1273 70.9709 69.202 71.4749 69.202C72.1469 69.202 72.6416 69.0993 72.9589 68.894C73.2856 68.6793 73.4489 68.3807 73.4489 67.998C73.4489 67.7273 73.3603 67.5173 73.1829 67.368C73.0056 67.2093 72.7816 67.0927 72.5109 67.018C72.2403 66.934 71.8809 66.8547 71.4329 66.78C70.8356 66.668 70.3549 66.556 69.9909 66.444C69.6269 66.3227 69.3143 66.122 69.0529 65.842C68.8009 65.562 68.6749 65.1747 68.6749 64.68C68.6749 64.064 68.9316 63.56 69.4449 63.168C69.9583 62.776 70.6723 62.58 71.5869 62.58C72.0629 62.58 72.5389 62.6453 73.0149 62.776C73.4909 62.8973 73.8829 63.0607 74.1909 63.266L73.7569 64.064C73.1503 63.644 72.4269 63.434 71.5869 63.434C70.9523 63.434 70.4716 63.546 70.1449 63.77C69.8276 63.994 69.6689 64.288 69.6689 64.652C69.6689 64.932 69.7576 65.156 69.9349 65.324C70.1216 65.492 70.3503 65.618 70.6209 65.702C70.8916 65.7767 71.2649 65.856 71.7409 65.94C72.3289 66.052 72.8003 66.164 73.1549 66.276C73.5096 66.388 73.8129 66.5793 74.0649 66.85C74.3169 67.1207 74.4429 67.494 74.4429 67.97C74.4429 68.614 74.1723 69.1273 73.6309 69.51C73.0989 69.8833 72.3569 70.07 71.4049 70.07ZM82.6925 66.626H76.5325C76.5885 67.3913 76.8825 68.012 77.4145 68.488C77.9465 68.9547 78.6185 69.188 79.4305 69.188C79.8879 69.188 80.3079 69.1087 80.6905 68.95C81.0732 68.782 81.4045 68.5393 81.6845 68.222L82.2445 68.866C81.9179 69.258 81.5072 69.5567 81.0125 69.762C80.5272 69.9673 79.9905 70.07 79.4025 70.07C78.6465 70.07 77.9745 69.9113 77.3865 69.594C76.8079 69.2673 76.3552 68.8193 76.0285 68.25C75.7019 67.6807 75.5385 67.0367 75.5385 66.318C75.5385 65.5993 75.6925 64.9553 76.0005 64.386C76.3179 63.8167 76.7472 63.3733 77.2885 63.056C77.8392 62.7387 78.4552 62.58 79.1365 62.58C79.8179 62.58 80.4292 62.7387 80.9705 63.056C81.5119 63.3733 81.9365 63.8167 82.2445 64.386C82.5525 64.946 82.7065 65.59 82.7065 66.318L82.6925 66.626ZM79.1365 63.434C78.4272 63.434 77.8299 63.6627 77.3445 64.12C76.8685 64.568 76.5979 65.156 76.5325 65.884H81.7545C81.6892 65.156 81.4139 64.568 80.9285 64.12C80.4525 63.6627 79.8552 63.434 79.1365 63.434ZM91.4498 59.612V70H90.4978V68.544C90.1991 69.0387 89.8024 69.4167 89.3078 69.678C88.8224 69.9393 88.2718 70.07 87.6558 70.07C86.9651 70.07 86.3398 69.9113 85.7798 69.594C85.2198 69.2767 84.7811 68.8333 84.4638 68.264C84.1464 67.6947 83.9878 67.046 83.9878 66.318C83.9878 65.59 84.1464 64.9413 84.4638 64.372C84.7811 63.8027 85.2198 63.364 85.7798 63.056C86.3398 62.7387 86.9651 62.58 87.6558 62.58C88.2531 62.58 88.7898 62.706 89.2658 62.958C89.7511 63.2007 90.1478 63.56 90.4558 64.036V59.612H91.4498ZM87.7398 69.188C88.2531 69.188 88.7151 69.0713 89.1258 68.838C89.5458 68.5953 89.8724 68.2547 90.1058 67.816C90.3484 67.3773 90.4698 66.878 90.4698 66.318C90.4698 65.758 90.3484 65.2587 90.1058 64.82C89.8724 64.3813 89.5458 64.0453 89.1258 63.812C88.7151 63.5693 88.2531 63.448 87.7398 63.448C87.2171 63.448 86.7458 63.5693 86.3258 63.812C85.9151 64.0453 85.5884 64.3813 85.3458 64.82C85.1124 65.2587 84.9958 65.758 84.9958 66.318C84.9958 66.878 85.1124 67.3773 85.3458 67.816C85.5884 68.2547 85.9151 68.5953 86.3258 68.838C86.7458 69.0713 87.2171 69.188 87.7398 69.188ZM100.892 70.07C100.183 70.07 99.5434 69.9113 98.9741 69.594C98.4048 69.2673 97.9568 68.8193 97.6301 68.25C97.3034 67.6807 97.1401 67.0367 97.1401 66.318C97.1401 65.5993 97.3034 64.9553 97.6301 64.386C97.9568 63.8167 98.4048 63.3733 98.9741 63.056C99.5434 62.7387 100.183 62.58 100.892 62.58C101.601 62.58 102.241 62.7387 102.81 63.056C103.379 63.3733 103.823 63.8167 104.14 64.386C104.467 64.9553 104.63 65.5993 104.63 66.318C104.63 67.0367 104.467 67.6807 104.14 68.25C103.823 68.8193 103.379 69.2673 102.81 69.594C102.241 69.9113 101.601 70.07 100.892 70.07ZM100.892 69.188C101.415 69.188 101.881 69.0713 102.292 68.838C102.712 68.5953 103.039 68.2547 103.272 67.816C103.505 67.3773 103.622 66.878 103.622 66.318C103.622 65.758 103.505 65.2587 103.272 64.82C103.039 64.3813 102.712 64.0453 102.292 63.812C101.881 63.5693 101.415 63.448 100.892 63.448C100.369 63.448 99.8981 63.5693 99.4781 63.812C99.0674 64.0453 98.7408 64.3813 98.4981 64.82C98.2648 65.2587 98.1481 65.758 98.1481 66.318C98.1481 66.878 98.2648 67.3773 98.4981 67.816C98.7408 68.2547 99.0674 68.5953 99.4781 68.838C99.8981 69.0713 100.369 69.188 100.892 69.188ZM110.411 62.58C111.335 62.58 112.068 62.8507 112.609 63.392C113.16 63.924 113.435 64.7033 113.435 65.73V70H112.441V65.828C112.441 65.0627 112.25 64.4793 111.867 64.078C111.485 63.6767 110.939 63.476 110.229 63.476C109.436 63.476 108.806 63.714 108.339 64.19C107.882 64.6567 107.653 65.3053 107.653 66.136V70H106.659V62.636H107.611V63.994C107.882 63.546 108.255 63.2007 108.731 62.958C109.217 62.706 109.777 62.58 110.411 62.58ZM122.472 64.4C123.499 64.456 124.278 64.736 124.81 65.24C125.351 65.7347 125.622 66.3833 125.622 67.186C125.622 67.746 125.487 68.2453 125.216 68.684C124.945 69.1133 124.544 69.454 124.012 69.706C123.48 69.958 122.831 70.084 122.066 70.084C121.357 70.084 120.685 69.972 120.05 69.748C119.425 69.5147 118.921 69.2067 118.538 68.824L119.028 68.026C119.355 68.362 119.789 68.6373 120.33 68.852C120.871 69.0573 121.45 69.16 122.066 69.16C122.869 69.16 123.489 68.9873 123.928 68.642C124.367 68.2873 124.586 67.802 124.586 67.186C124.586 66.5793 124.367 66.1033 123.928 65.758C123.489 65.4127 122.827 65.24 121.94 65.24H121.24V64.498L123.956 61.096H118.944V60.2H125.244V60.914L122.472 64.4ZM135.372 67.424H133.412V70H132.404V67.424H126.874V66.696L132.068 60.2H133.188L128.176 66.528H132.432V64.26H133.412V66.528H135.372V67.424ZM144.628 67.424H142.668V70H141.66V67.424H136.13V66.696L141.324 60.2H142.444L137.432 66.528H141.688V64.26H142.668V66.528H144.628V67.424ZM150.828 64.078C151.062 63.5833 151.407 63.21 151.864 62.958C152.331 62.706 152.905 62.58 153.586 62.58V63.546L153.348 63.532C152.574 63.532 151.967 63.77 151.528 64.246C151.09 64.722 150.87 65.3893 150.87 66.248V70H149.876V62.636H150.828V64.078ZM161.73 66.626H155.57C155.626 67.3913 155.92 68.012 156.452 68.488C156.984 68.9547 157.656 69.188 158.468 69.188C158.925 69.188 159.345 69.1087 159.728 68.95C160.11 68.782 160.442 68.5393 160.722 68.222L161.282 68.866C160.955 69.258 160.544 69.5567 160.05 69.762C159.564 69.9673 159.028 70.07 158.44 70.07C157.684 70.07 157.012 69.9113 156.424 69.594C155.845 69.2673 155.392 68.8193 155.066 68.25C154.739 67.6807 154.576 67.0367 154.576 66.318C154.576 65.5993 154.73 64.9553 155.038 64.386C155.355 63.8167 155.784 63.3733 156.326 63.056C156.876 62.7387 157.492 62.58 158.174 62.58C158.855 62.58 159.466 62.7387 160.008 63.056C160.549 63.3733 160.974 63.8167 161.282 64.386C161.59 64.946 161.744 65.59 161.744 66.318L161.73 66.626ZM158.174 63.434C157.464 63.434 156.867 63.6627 156.382 64.12C155.906 64.568 155.635 65.156 155.57 65.884H160.792C160.726 65.156 160.451 64.568 159.966 64.12C159.49 63.6627 158.892 63.434 158.174 63.434ZM169.818 62.636L166.542 70H165.52L162.258 62.636H163.294L166.052 68.908L168.838 62.636H169.818ZM171.218 62.636H172.212V70H171.218V62.636ZM171.722 61.026C171.517 61.026 171.344 60.956 171.204 60.816C171.064 60.676 170.994 60.508 170.994 60.312C170.994 60.1253 171.064 59.962 171.204 59.822C171.344 59.682 171.517 59.612 171.722 59.612C171.927 59.612 172.1 59.682 172.24 59.822C172.38 59.9527 172.45 60.1113 172.45 60.298C172.45 60.5033 172.38 60.676 172.24 60.816C172.1 60.956 171.927 61.026 171.722 61.026ZM181.39 66.626H175.23C175.286 67.3913 175.58 68.012 176.112 68.488C176.644 68.9547 177.316 69.188 178.128 69.188C178.585 69.188 179.005 69.1087 179.388 68.95C179.77 68.782 180.102 68.5393 180.382 68.222L180.942 68.866C180.615 69.258 180.204 69.5567 179.71 69.762C179.224 69.9673 178.688 70.07 178.1 70.07C177.344 70.07 176.672 69.9113 176.084 69.594C175.505 69.2673 175.052 68.8193 174.726 68.25C174.399 67.6807 174.236 67.0367 174.236 66.318C174.236 65.5993 174.39 64.9553 174.698 64.386C175.015 63.8167 175.444 63.3733 175.986 63.056C176.536 62.7387 177.152 62.58 177.834 62.58C178.515 62.58 179.126 62.7387 179.668 63.056C180.209 63.3733 180.634 63.8167 180.942 64.386C181.25 64.946 181.404 65.59 181.404 66.318L181.39 66.626ZM177.834 63.434C177.124 63.434 176.527 63.6627 176.042 64.12C175.566 64.568 175.295 65.156 175.23 65.884H180.452C180.386 65.156 180.111 64.568 179.626 64.12C179.15 63.6627 178.552 63.434 177.834 63.434ZM194.098 62.636L191.312 70H190.374L188.05 63.966L185.726 70H184.788L182.016 62.636H182.968L185.278 68.894L187.644 62.636H188.498L190.85 68.894L193.188 62.636H194.098ZM197.487 70.07C196.89 70.07 196.316 69.986 195.765 69.818C195.224 69.6407 194.799 69.4213 194.491 69.16L194.939 68.376C195.247 68.6187 195.634 68.8193 196.101 68.978C196.568 69.1273 197.053 69.202 197.557 69.202C198.229 69.202 198.724 69.0993 199.041 68.894C199.368 68.6793 199.531 68.3807 199.531 67.998C199.531 67.7273 199.442 67.5173 199.265 67.368C199.088 67.2093 198.864 67.0927 198.593 67.018C198.322 66.934 197.963 66.8547 197.515 66.78C196.918 66.668 196.437 66.556 196.073 66.444C195.709 66.3227 195.396 66.122 195.135 65.842C194.883 65.562 194.757 65.1747 194.757 64.68C194.757 64.064 195.014 63.56 195.527 63.168C196.04 62.776 196.754 62.58 197.669 62.58C198.145 62.58 198.621 62.6453 199.097 62.776C199.573 62.8973 199.965 63.0607 200.273 63.266L199.839 64.064C199.232 63.644 198.509 63.434 197.669 63.434C197.034 63.434 196.554 63.546 196.227 63.77C195.91 63.994 195.751 64.288 195.751 64.652C195.751 64.932 195.84 65.156 196.017 65.324C196.204 65.492 196.432 65.618 196.703 65.702C196.974 65.7767 197.347 65.856 197.823 65.94C198.411 66.052 198.882 66.164 199.237 66.276C199.592 66.388 199.895 66.5793 200.147 66.85C200.399 67.1207 200.525 67.494 200.525 67.97C200.525 68.614 200.254 69.1273 199.713 69.51C199.181 69.8833 198.439 70.07 197.487 70.07Z" fill="white"/>
<path d="M38.898 14.358C38.6412 13.5551 37.9407 12.9866 37.1153 12.9107L25.8572 11.8715L21.4079 1.28033C21.0794 0.502209 20.332 0 19.5 0C18.6681 0 17.9203 0.502209 17.5939 1.28033L13.1446 11.8715L1.88471 12.9107C1.0593 12.9882 0.360358 13.5566 0.102084 14.358C-0.154703 15.161 0.0824451 16.0417 0.706707 16.5983L9.21696 24.1856L6.70771 35.4224C6.52413 36.2486 6.83953 37.103 7.51378 37.5985C7.8762 37.8663 8.30199 38 8.72928 38C9.09645 38 9.46393 37.9008 9.79213 37.7011L19.5 31.7992L29.2061 37.7011C29.9182 38.1337 30.8135 38.0941 31.4863 37.5985C32.1605 37.103 32.4759 36.2486 32.2923 35.4224L29.7831 24.1856L38.2933 16.5983C38.9173 16.0417 39.1547 15.1628 38.898 14.358V14.358Z" fill="#00B496"/>
<path d="M88.898 14.358C88.6412 13.5551 87.9407 12.9866 87.1153 12.9107L75.8572 11.8715L71.4079 1.28033C71.0794 0.502209 70.332 0 69.5 0C68.6681 0 67.9203 0.502209 67.5939 1.28033L63.1446 11.8715L51.8847 12.9107C51.0593 12.9882 50.3604 13.5566 50.1021 14.358C49.8453 15.161 50.0824 16.0417 50.7067 16.5983L59.217 24.1856L56.7077 35.4224C56.5241 36.2486 56.8395 37.103 57.5138 37.5985C57.8762 37.8663 58.302 38 58.7293 38C59.0965 38 59.4639 37.9008 59.7921 37.7011L69.5 31.7992L79.2061 37.7011C79.9182 38.1337 80.8135 38.0941 81.4863 37.5985C82.1605 37.103 82.4759 36.2486 82.2923 35.4224L79.7831 24.1856L88.2933 16.5983C88.9173 16.0417 89.1547 15.1628 88.898 14.358V14.358Z" fill="#00B496"/>
<path d="M133.898 14.358C133.641 13.5551 132.941 12.9866 132.115 12.9107L120.857 11.8715L116.408 1.28033C116.079 0.502209 115.332 0 114.5 0C113.668 0 112.92 0.502209 112.594 1.28033L108.145 11.8715L96.8847 12.9107C96.0593 12.9882 95.3604 13.5566 95.1021 14.358C94.8453 15.161 95.0824 16.0417 95.7067 16.5983L104.217 24.1856L101.708 35.4224C101.524 36.2486 101.84 37.103 102.514 37.5985C102.876 37.8663 103.302 38 103.729 38C104.096 38 104.464 37.9008 104.792 37.7011L114.5 31.7992L124.206 37.7011C124.918 38.1337 125.814 38.0941 126.486 37.5985C127.161 37.103 127.476 36.2486 127.292 35.4224L124.783 24.1856L133.293 16.5983C133.917 16.0417 134.155 15.1628 133.898 14.358V14.358Z" fill="#00B496"/>
<path d="M179.898 14.358C179.641 13.5551 178.941 12.9866 178.115 12.9107L166.857 11.8715L162.408 1.28033C162.079 0.502209 161.332 0 160.5 0C159.668 0 158.92 0.502209 158.594 1.28033L154.145 11.8715L142.885 12.9107C142.059 12.9882 141.36 13.5566 141.102 14.358C140.845 15.161 141.082 16.0417 141.707 16.5983L150.217 24.1856L147.708 35.4224C147.524 36.2486 147.84 37.103 148.514 37.5985C148.876 37.8663 149.302 38 149.729 38C150.096 38 150.464 37.9008 150.792 37.7011L160.5 31.7992L170.206 37.7011C170.918 38.1337 171.814 38.0941 172.486 37.5985C173.161 37.103 173.476 36.2486 173.292 35.4224L170.783 24.1856L179.293 16.5983C179.917 16.0417 180.155 15.1628 179.898 14.358V14.358Z" fill="#00B496"/>
<path d="M223.024 13.9065L223.023 13.9065L211.765 12.8673L211.168 12.8121L210.935 12.2588L206.487 1.66926C206.487 1.66907 206.486 1.66888 206.486 1.66869C206.311 1.25305 205.921 1 205.5 1C205.078 1 204.69 1.2536 204.516 1.66716L204.516 1.66764L200.067 12.2588L199.834 12.8121L199.237 12.8673L187.978 13.9063C187.978 13.9064 187.977 13.9064 187.977 13.9064C187.56 13.946 187.193 14.2348 187.054 14.6637C186.917 15.0947 187.047 15.5616 187.372 15.8519C187.372 15.8519 187.372 15.8519 187.372 15.852L195.882 23.4392L196.321 23.8302L196.193 24.4036L193.684 35.6393C193.684 35.6396 193.684 35.6398 193.684 35.6401C193.585 36.0866 193.757 36.5365 194.106 36.7928L194.108 36.7942C194.295 36.9324 194.512 37 194.729 37C194.916 37 195.103 36.9499 195.272 36.8468L195.273 36.8466L204.981 30.9447L205.5 30.6289L206.02 30.9448L215.725 36.8465C215.725 36.8465 215.726 36.8466 215.726 36.8467C216.091 37.0683 216.547 37.0487 216.893 36.7934L216.894 36.7928C217.243 36.5365 217.415 36.0866 217.316 35.6401C217.316 35.6398 217.316 35.6396 217.316 35.6393L214.807 24.4036L214.679 23.8302L215.118 23.4392L223.628 15.8521C223.953 15.5616 224.083 15.0958 223.945 14.6627L223.024 13.9065ZM223.024 13.9065C223.441 13.9449 223.808 14.2335 223.945 14.662L223.024 13.9065Z" stroke="#00B496" stroke-width="2"/>
</svg>
